<?xml version="1.0" encoding="UTF-8" standalone="no"?>
<svg
   xmlns:dc="http://purl.org/dc/elements/1.1/"
   xmlns:cc="http://creativecommons.org/ns#"
   xmlns:rdf="http://www.w3.org/1999/02/22-rdf-syntax-ns#"
   xmlns:svg="http://www.w3.org/2000/svg"
   xmlns="http://www.w3.org/2000/svg"
   xmlns:sodipodi="http://sodipodi.sourceforge.net/DTD/sodipodi-0.dtd"
   xmlns:inkscape="http://www.inkscape.org/namespaces/inkscape"
   width="452"
   height="449"
   viewBox="0 0 452 449"
   version="1.1"
   id="svg1081"
   sodipodi:docname="logo-vertical-chinese.svg"
   inkscape:version="0.92.3 (2405546, 2018-03-11)">
  <metadata
     id="metadata1085">
    <rdf:RDF>
      <cc:Work
         rdf:about="">
        <dc:format>image/svg+xml</dc:format>
        <dc:type
           rdf:resource="http://purl.org/dc/dcmitype/StillImage" />
      </cc:Work>
    </rdf:RDF>
  </metadata>
  <sodipodi:namedview
     pagecolor="#ffffff"
     bordercolor="#666666"
     borderopacity="1"
     objecttolerance="10"
     gridtolerance="10"
     guidetolerance="10"
     inkscape:pageopacity="0"
     inkscape:pageshadow="2"
     inkscape:window-width="2482"
     inkscape:window-height="1411"
     id="namedview1083"
     showgrid="false"
     inkscape:zoom="2.623608"
     inkscape:cx="226"
     inkscape:cy="224.5"
     inkscape:window-x="1911"
     inkscape:window-y="-9"
     inkscape:window-maximized="1"
     inkscape:current-layer="g1079" />
  <defs
     id="defs1001">
    <polygon
       id="logo-vertical-a"
       points=".06 60.533 .06 .189 451.955 .189 451.955 60.533" />
    <polygon
       id="logo-vertical-c"
       points=".794 27.94 35.633 27.94 35.633 .271 .794 .271" />
  </defs>
  <g
     fill="none"
     fill-rule="evenodd"
     id="g1079">
    <path
       fill="#56c02b"
       d="M149.968,107.955 C153.718,101.584 158.266,95.744 163.479,90.574 L119.175,41.993 C108.028,52.645 98.523,64.994 91.047,78.605 L149.968,107.955"
       id="path1028" />
    <path
       fill="#dda63a"
       d="M258.577,73.635 C265.285,76.709 271.524,80.631 277.155,85.275 L321.585,36.768 C309.883,26.677 296.614,18.351 282.21,12.202 L258.577,73.635"
       id="path1030" />
    <path
       fill="#c5192d"
       d="M360.325,88.242 L301.439,117.596 C304.252,124.16 306.251,131.131 307.335,138.402 L372.839,132.219 C370.907,116.711 366.614,101.924 360.325,88.242"
       id="path1032" />
    <path
       fill="#4c9f38"
       d="M297.214,109.086 L356.093,79.736 C348.799,66.184 339.497,53.872 328.579,43.206 L284.149,91.701 C289.21,96.9 293.61,102.738 297.214,109.086"
       id="path1034" />
    <path
       fill="#3f7e44"
       d="M138.267,150.931 C138.267,149.607 138.311,148.283 138.368,146.967 L72.849,141.101 C72.644,144.349 72.518,147.627 72.518,150.931 C72.518,163.498 74.079,175.707 76.98,187.375 L140.259,169.222 C138.962,163.326 138.267,157.213 138.267,150.931"
       id="path1036" />
    <path
       fill="#fcc30b"
       d="M288.968,204.783 C284.311,210.451 278.936,215.504 272.989,219.814 L307.583,275.824 C320.422,267.125 331.852,256.5 341.46,244.365 L288.968,204.783"
       id="path1038" />
    <path
       fill="#ff3a21"
       d="M308.25,150.931 C308.25,157.135 307.583,163.183 306.303,169.01 L369.574,187.189 C372.459,175.572 373.997,163.426 373.997,150.931 C373.997,147.828 373.894,144.748 373.704,141.68 L308.191,147.867 C308.227,148.892 308.25,149.908 308.25,150.931"
       id="path1040" />
    <path
       fill="#fd9d24"
       d="M158.61,206.035 L106.242,245.836 C115.982,257.828 127.517,268.281 140.441,276.816 L175.028,220.867 C168.935,216.654 163.414,211.66 158.61,206.035"
       id="path1042" />
    <path
       fill="#0a97d9"
       d="M139.328,137.514 C140.5,130.113 142.645,123.035 145.603,116.406 L86.741,87.08 C80.237,100.922 75.778,115.904 73.75,131.633 L139.328,137.514"
       id="path1044" />
    <path
       fill="#a21942"
       d="M299.536,280.89 L264.993,224.955 C258.717,228.498 251.957,231.279 244.833,233.146 L257.024,297.851 C272.191,294.367 286.493,288.582 299.536,280.89"
       id="path1046" />
    <path
       fill="#26bde2"
       d="M303.782,178.172 C301.491,184.9 298.393,191.25 294.586,197.109 L347.12,236.734 C355.653,224.467 362.397,210.883 367.003,196.34 L303.782,178.172"
       id="path1048" />
    <path
       fill="#fd6925"
       d="M235.517,235.035 C231.518,235.613 227.425,235.928 223.258,235.928 C219.912,235.928 216.608,235.719 213.365,235.342 L201.18,300.049 C208.392,301.107 215.759,301.668 223.258,301.668 C231.577,301.668 239.742,300.984 247.695,299.683 L235.517,235.035"
       id="path1050" />
    <path
       fill="#e5243b"
       d="M228.692,66.107 C235.993,66.576 243.044,67.965 249.725,70.168 L273.355,8.753 C259.296,3.788 244.298,0.849 228.692,0.3 L228.692,66.107"
       id="path1052" />
    <path
       fill="#dd1367"
       d="M203.998,233.724 C196.631,232.006 189.63,229.33 183.135,225.834 L148.526,281.81 C161.84,289.431 176.397,295.074 191.826,298.361 L203.998,233.724"
       id="path1054" />
    <path
       fill="#19486a"
       d="M197.716,69.865 C204.54,67.707 211.739,66.393 219.187,66.045 L219.187,0.247 C203.369,0.669 188.173,3.55 173.923,8.493 L197.716,69.865"
       id="path1056" />
    <path
       fill="#bf8b2e"
       d="M152.847,198.474 C148.673,192.308 145.267,185.556 142.82,178.377 L79.586,196.523 C84.375,211.605 91.472,225.658 100.472,238.275 L152.847,198.474"
       id="path1058" />
    <path
       fill="#00689d"
       d="M170.599,84.266 C176.155,79.865 182.27,76.156 188.825,73.236 L165.046,11.895 C150.884,17.841 137.834,25.893 126.264,35.647 L170.599,84.266"
       id="path1060" />
    <text
       xml:space="preserve"
       style="font-style:normal;font-variant:normal;font-weight:bold;font-stretch:condensed;font-size:74.66666412px;line-height:1.25;font-family:'Arial Narrow';-inkscape-font-specification:'Arial Narrow, Bold Condensed';font-variant-ligatures:normal;font-variant-caps:normal;font-variant-numeric:normal;font-feature-settings:normal;text-align:start;letter-spacing:0px;word-spacing:0px;writing-mode:lr-tb;text-anchor:start;fill:#000000;fill-opacity:1;stroke:none"
       x="51.455856"
       y="374.2937"
       id="text1089"><tspan
         sodipodi:role="line"
         id="tspan1087"
         x="51.455856"
         y="374.2937"
         style="font-style:normal;font-variant:normal;font-weight:bold;font-stretch:condensed;font-size:74.66666412px;font-family:'Arial Narrow';-inkscape-font-specification:'Arial Narrow, Bold Condensed';font-variant-ligatures:normal;font-variant-caps:normal;font-variant-numeric:normal;font-feature-settings:normal;text-align:start;writing-mode:lr-tb;text-anchor:start">SDG CHINA</tspan></text>
    <text
       xml:space="preserve"
       style="font-style:normal;font-variant:normal;font-weight:normal;font-stretch:normal;font-size:42.66666794px;line-height:1.25;font-family:sans-serif;-inkscape-font-specification:'sans-serif, Normal';font-variant-ligatures:normal;font-variant-caps:normal;font-variant-numeric:normal;font-feature-settings:normal;text-align:center;letter-spacing:0px;word-spacing:0px;writing-mode:lr-tb;text-anchor:middle;fill:#000000;fill-opacity:0.75294118;stroke:none"
       x="219.41371"
       y="421.96292"
       id="text1089-4"><tspan
         sodipodi:role="line"
         id="tspan1087-4"
         x="219.41371"
         y="421.96292"
         style="font-style:normal;font-variant:normal;font-weight:normal;font-stretch:normal;font-size:42.66666794px;font-family:sans-serif;-inkscape-font-specification:'sans-serif, Normal';font-variant-ligatures:normal;font-variant-caps:normal;font-variant-numeric:normal;font-feature-settings:normal;text-align:center;writing-mode:lr-tb;text-anchor:middle;fill:#000000;fill-opacity:0.58823532">可 持 续 发 展</tspan></text>
  </g>
</svg>
