<?xml version="1.0" encoding="UTF-8" standalone="no"?>
<svg
   xmlns:dc="http://purl.org/dc/elements/1.1/"
   xmlns:cc="http://creativecommons.org/ns#"
   xmlns:rdf="http://www.w3.org/1999/02/22-rdf-syntax-ns#"
   xmlns:svg="http://www.w3.org/2000/svg"
   xmlns="http://www.w3.org/2000/svg"
   xmlns:sodipodi="http://sodipodi.sourceforge.net/DTD/sodipodi-0.dtd"
   xmlns:inkscape="http://www.inkscape.org/namespaces/inkscape"
   width="301.479"
   height="301.42099"
   viewBox="0 0 301.479 301.42099"
   version="1.1"
   id="svg1081"
   sodipodi:docname="logo-chinese-white.svg"
   inkscape:version="0.92.3 (2405546, 2018-03-11)">
  <metadata
     id="metadata1085">
    <rdf:RDF>
      <cc:Work
         rdf:about="">
        <dc:format>image/svg+xml</dc:format>
        <dc:type
           rdf:resource="http://purl.org/dc/dcmitype/StillImage" />
      </cc:Work>
    </rdf:RDF>
  </metadata>
  <sodipodi:namedview
     pagecolor="#ffffff"
     bordercolor="#666666"
     borderopacity="1"
     objecttolerance="10"
     gridtolerance="10"
     guidetolerance="10"
     inkscape:pageopacity="0"
     inkscape:pageshadow="2"
     inkscape:window-width="2482"
     inkscape:window-height="1411"
     id="namedview1083"
     showgrid="false"
     inkscape:zoom="2.623608"
     inkscape:cx="28.082168"
     inkscape:cy="137.92182"
     inkscape:window-x="1911"
     inkscape:window-y="-9"
     inkscape:window-maximized="1"
     inkscape:current-layer="g1079" />
  <defs
     id="defs1001">
    <polygon
       id="logo-vertical-a"
       points="0.06,0.189 451.955,0.189 451.955,60.533 0.06,60.533 " />
    <polygon
       id="logo-vertical-c"
       points="35.633,27.94 35.633,0.271 0.794,0.271 0.794,27.94 " />
  </defs>
  <g
     id="g1079"
     style="fill:none;fill-rule:evenodd"
     transform="translate(-72.518,-76.247)">
    <path
       d="m 149.968,183.955 c 3.75,-6.371 8.298,-12.211 13.511,-17.381 l -44.304,-48.581 c -11.147,10.652 -20.652,23.001 -28.128,36.612 l 58.921,29.35"
       id="path1028"
       inkscape:connector-curvature="0"
       style="fill:#56c02b" />
    <path
       d="m 258.577,149.635 c 6.708,3.074 12.947,6.996 18.578,11.64 l 44.43,-48.507 C 309.883,102.677 296.614,94.351 282.21,88.202 l -23.633,61.433"
       id="path1030"
       inkscape:connector-curvature="0"
       style="fill:#dda63a" />
    <path
       d="m 360.325,164.242 -58.886,29.354 c 2.813,6.564 4.812,13.535 5.896,20.806 l 65.504,-6.183 c -1.932,-15.508 -6.225,-30.295 -12.514,-43.977"
       id="path1032"
       inkscape:connector-curvature="0"
       style="fill:#c5192d" />
    <path
       d="m 297.214,185.086 58.879,-29.35 c -7.294,-13.552 -16.596,-25.864 -27.514,-36.53 l -44.43,48.495 c 5.061,5.199 9.461,11.037 13.065,17.385"
       id="path1034"
       inkscape:connector-curvature="0"
       style="fill:#4c9f38" />
    <path
       d="m 138.267,226.931 c 0,-1.324 0.044,-2.648 0.101,-3.964 l -65.519,-5.866 c -0.205,3.248 -0.331,6.526 -0.331,9.83 0,12.567 1.561,24.776 4.462,36.444 l 63.279,-18.153 c -1.297,-5.896 -1.992,-12.009 -1.992,-18.291"
       id="path1036"
       inkscape:connector-curvature="0"
       style="fill:#3f7e44" />
    <path
       d="m 288.968,280.783 c -4.657,5.668 -10.032,10.721 -15.979,15.031 l 34.594,56.01 c 12.839,-8.699 24.269,-19.324 33.877,-31.459 l -52.492,-39.582"
       id="path1038"
       inkscape:connector-curvature="0"
       style="fill:#fcc30b" />
    <path
       d="m 308.25,226.931 c 0,6.204 -0.667,12.252 -1.947,18.079 l 63.271,18.179 c 2.885,-11.617 4.423,-23.763 4.423,-36.258 0,-3.103 -0.103,-6.183 -0.293,-9.251 l -65.513,6.187 c 0.036,1.025 0.059,2.041 0.059,3.064"
       id="path1040"
       inkscape:connector-curvature="0"
       style="fill:#ff3a21" />
    <path
       d="m 158.61,282.035 -52.368,39.801 c 9.74,11.992 21.275,22.445 34.199,30.98 l 34.587,-55.949 c -6.093,-4.213 -11.614,-9.207 -16.418,-14.832"
       id="path1042"
       inkscape:connector-curvature="0"
       style="fill:#fd9d24" />
    <path
       d="m 139.328,213.514 c 1.172,-7.401 3.317,-14.479 6.275,-21.108 L 86.741,163.08 c -6.504,13.842 -10.963,28.824 -12.991,44.553 l 65.578,5.881"
       id="path1044"
       inkscape:connector-curvature="0"
       style="fill:#0a97d9" />
    <path
       d="m 299.536,356.89 -34.543,-55.935 c -6.276,3.543 -13.036,6.324 -20.16,8.191 l 12.191,64.705 c 15.167,-3.484 29.469,-9.269 42.512,-16.961"
       id="path1046"
       inkscape:connector-curvature="0"
       style="fill:#a21942" />
    <path
       d="m 303.782,254.172 c -2.291,6.728 -5.389,13.078 -9.196,18.937 l 52.534,39.625 c 8.533,-12.267 15.277,-25.851 19.883,-40.394 l -63.221,-18.168"
       id="path1048"
       inkscape:connector-curvature="0"
       style="fill:#26bde2" />
    <path
       d="m 235.517,311.035 c -3.999,0.578 -8.092,0.893 -12.259,0.893 -3.346,0 -6.65,-0.209 -9.893,-0.586 l -12.185,64.707 c 7.212,1.058 14.579,1.619 22.078,1.619 8.319,0 16.484,-0.684 24.437,-1.985 l -12.178,-64.648"
       id="path1050"
       inkscape:connector-curvature="0"
       style="fill:#fd6925" />
    <path
       d="m 228.692,142.107 c 7.301,0.469 14.352,1.858 21.033,4.061 l 23.63,-61.415 C 259.296,79.788 244.298,76.849 228.692,76.3 v 65.807"
       id="path1052"
       inkscape:connector-curvature="0"
       style="fill:#e5243b" />
    <path
       d="m 203.998,309.724 c -7.367,-1.718 -14.368,-4.394 -20.863,-7.89 l -34.609,55.976 c 13.314,7.621 27.871,13.264 43.3,16.551 l 12.172,-64.637"
       id="path1054"
       inkscape:connector-curvature="0"
       style="fill:#dd1367" />
    <path
       d="m 197.716,145.865 c 6.824,-2.158 14.023,-3.472 21.471,-3.82 V 76.247 c -15.818,0.422 -31.014,3.303 -45.264,8.246 l 23.793,61.372"
       id="path1056"
       inkscape:connector-curvature="0"
       style="fill:#19486a" />
    <path
       d="m 152.847,274.474 c -4.174,-6.166 -7.58,-12.918 -10.027,-20.097 l -63.234,18.146 c 4.789,15.082 11.886,29.135 20.886,41.752 l 52.375,-39.801"
       id="path1058"
       inkscape:connector-curvature="0"
       style="fill:#bf8b2e" />
    <path
       d="m 170.599,160.266 c 5.556,-4.401 11.671,-8.11 18.226,-11.03 L 165.046,87.895 c -14.162,5.946 -27.212,13.998 -38.782,23.752 l 44.335,48.619"
       id="path1060"
       inkscape:connector-curvature="0"
       style="fill:#00689d" />
    <text
       xml:space="preserve"
       style="font-style:normal;font-variant:normal;font-weight:bold;font-stretch:condensed;font-size:74.66666412px;line-height:1.25;font-family:'Arial Narrow';-inkscape-font-specification:'Arial Narrow, Bold Condensed';font-variant-ligatures:normal;font-variant-caps:normal;font-variant-numeric:normal;font-feature-settings:normal;text-align:start;letter-spacing:0px;word-spacing:0px;writing-mode:lr-tb;text-anchor:start;fill:#000000;fill-opacity:1;stroke:none"
       x="150.93718"
       y="249.80643"
       id="text1089"><tspan
         sodipodi:role="line"
         id="tspan1087"
         x="150.93718"
         y="249.80643"
         style="font-style:normal;font-variant:normal;font-weight:bold;font-stretch:condensed;font-size:56px;font-family:'Arial Narrow';-inkscape-font-specification:'Arial Narrow, Bold Condensed';font-variant-ligatures:normal;font-variant-caps:normal;font-variant-numeric:normal;font-feature-settings:normal;text-align:start;writing-mode:lr-tb;text-anchor:start;fill:#d4d4d4;fill-opacity:1">CHINA</tspan></text>
  </g>
</svg>
