<?xml version="1.0" encoding="UTF-8" standalone="no"?>
<svg
   xmlns:dc="http://purl.org/dc/elements/1.1/"
   xmlns:cc="http://creativecommons.org/ns#"
   xmlns:rdf="http://www.w3.org/1999/02/22-rdf-syntax-ns#"
   xmlns:svg="http://www.w3.org/2000/svg"
   xmlns="http://www.w3.org/2000/svg"
   xmlns:sodipodi="http://sodipodi.sourceforge.net/DTD/sodipodi-0.dtd"
   xmlns:inkscape="http://www.inkscape.org/namespaces/inkscape"
   id="Layer_1"
   data-name="Layer 1"
   viewBox="0 0 1000 1000"
   version="1.1"
   sodipodi:docname="TheGlobalGoals_Icons_Color_Goal_17.svg"
   inkscape:version="0.92.3 (2405546, 2018-03-11)">
  <metadata
     id="metadata65">
    <rdf:RDF>
      <cc:Work
         rdf:about="">
        <dc:format>image/svg+xml</dc:format>
        <dc:type
           rdf:resource="http://purl.org/dc/dcmitype/StillImage" />
      </cc:Work>
    </rdf:RDF>
  </metadata>
  <sodipodi:namedview
     pagecolor="#ffffff"
     bordercolor="#666666"
     borderopacity="1"
     objecttolerance="10"
     gridtolerance="10"
     guidetolerance="10"
     inkscape:pageopacity="0"
     inkscape:pageshadow="2"
     inkscape:window-width="2482"
     inkscape:window-height="1411"
     id="namedview63"
     showgrid="false"
     inkscape:zoom="1.178"
     inkscape:cx="500"
     inkscape:cy="500"
     inkscape:window-x="1911"
     inkscape:window-y="-9"
     inkscape:window-maximized="1"
     inkscape:current-layer="Layer_1" />
  <defs
     id="defs4">
    <style
       id="style2">
      .cls-1 {
        fill: #19486a;
      }

      .cls-2 {
        fill: #fff;
      }
    </style>
  </defs>
  <title
     id="title6">Artboard 1</title>
  <rect
     class="cls-1"
     width="1000"
     height="1000"
     id="rect8" />
  <polygon
     class="cls-2"
     points="149.63 83.81 149.63 285.42 115.73 285.42 115.73 131.09 115.43 131.09 91.64 155.77 91.35 155.77 91.35 120.38 122.58 83.81 149.63 83.81"
     id="polygon34" />
  <polygon
     class="cls-2"
     points="165.1 83.81 250.16 83.81 250.16 115.03 205.84 285.42 172.22 285.42 217.43 111.46 165.1 111.46 165.1 83.81"
     id="polygon36" />
  <path
     class="cls-2"
     d="M748.26,606.48c0-70.23-55.87-127.6-125.47-130.14a130.23,130.23,0,0,0-245.61,0c-69.59,2.54-125.44,59.92-125.44,130.14A130,130,0,0,0,302,709.14a130.4,130.4,0,0,0-5.14,36.16c0,71.78,58.43,130.21,130.26,130.21a129.47,129.47,0,0,0,73.5-22.8,129.52,129.52,0,0,0,72.26,21.94c71.82,0,130.25-58.43,130.25-130.22A129.92,129.92,0,0,0,698.2,709a130.08,130.08,0,0,0,50.06-102.51M604,519.7c0,52.14-38.59,95.3-88.68,102.76a102.74,102.74,0,0,1-1.36-16,104.06,104.06,0,0,1,88.68-102.76,103.77,103.77,0,0,1,1.36,16M500.47,818.93a103.73,103.73,0,0,1-1-148.17,103.7,103.7,0,0,1,1,148.17M397.33,503.71C447.42,511.16,486,554.33,486,606.48a102.74,102.74,0,0,1-1.37,16C434.56,615,396,571.84,396,519.7a104,104,0,0,1,1.36-16M474.89,653a103.63,103.63,0,0,1-140.68,45.76A103.63,103.63,0,0,1,474.89,653m49.87-.7a103.67,103.67,0,0,1,141.37,46.3,103.67,103.67,0,0,1-141.37-46.3M500,415.69a104.13,104.13,0,0,1,95.35,62.54A130.71,130.71,0,0,0,500,551.42a130.61,130.61,0,0,0-95.35-73.19A104.14,104.14,0,0,1,500,415.69M278,606.48a104.17,104.17,0,0,1,92.87-103.42A129.57,129.57,0,0,0,412.3,615.92a130.49,130.49,0,0,0-99.87,67.67A103.68,103.68,0,0,1,278,606.48M323.09,745.3a103.41,103.41,0,0,1,2.27-21.56,130,130,0,0,0,119.52-3.27A129.64,129.64,0,0,0,479.45,835,103.83,103.83,0,0,1,323.09,745.3m353.82-.87a103.85,103.85,0,0,1-155.32,90.35,129.67,129.67,0,0,0,33.34-114.41,129.92,129.92,0,0,0,119.87,3.27,103.39,103.39,0,0,1,2.11,20.79M588.49,615.15a129.9,129.9,0,0,0,41.75-95.45,132.61,132.61,0,0,0-1.09-16.64,103.83,103.83,0,0,1,58.7,180.26,130.5,130.5,0,0,0-99.36-68.17"
     id="path60" />
  <text
     xml:space="preserve"
     style="font-style:normal;font-weight:normal;font-size:40px;line-height:1.25;font-family:sans-serif;letter-spacing:0px;word-spacing:0px;fill:#000000;fill-opacity:1;stroke:none"
     x="314"
     y="153.70833"
     id="text3853"><tspan
       sodipodi:role="line"
       x="314"
       y="153.70833"
       style="font-style:normal;font-variant:normal;font-weight:normal;font-stretch:normal;font-size:85.33333588px;font-family:'Microsoft Sans Serif';-inkscape-font-specification:'Microsoft Sans Serif';fill:#ffffff"
       id="tspan67">为实现这些目标</tspan><tspan
       sodipodi:role="line"
       x="314"
       y="260.375"
       style="font-style:normal;font-variant:normal;font-weight:normal;font-stretch:normal;font-size:85.33333588px;font-family:'Microsoft Sans Serif';-inkscape-font-specification:'Microsoft Sans Serif';fill:#ffffff"
       id="tspan79">建立伙伴关系</tspan></text>
</svg>
