<?xml version="1.0" encoding="UTF-8" standalone="no"?>
<svg
   xmlns:dc="http://purl.org/dc/elements/1.1/"
   xmlns:cc="http://creativecommons.org/ns#"
   xmlns:rdf="http://www.w3.org/1999/02/22-rdf-syntax-ns#"
   xmlns:svg="http://www.w3.org/2000/svg"
   xmlns="http://www.w3.org/2000/svg"
   xmlns:sodipodi="http://sodipodi.sourceforge.net/DTD/sodipodi-0.dtd"
   xmlns:inkscape="http://www.inkscape.org/namespaces/inkscape"
   id="Layer_1"
   data-name="Layer 1"
   viewBox="0 0 1000 1000"
   version="1.1"
   sodipodi:docname="TheGlobalGoals_Icons_Color_Goal_14.svg"
   inkscape:version="0.92.3 (2405546, 2018-03-11)">
  <metadata
     id="metadata53">
    <rdf:RDF>
      <cc:Work
         rdf:about="">
        <dc:format>image/svg+xml</dc:format>
        <dc:type
           rdf:resource="http://purl.org/dc/dcmitype/StillImage" />
      </cc:Work>
    </rdf:RDF>
  </metadata>
  <sodipodi:namedview
     pagecolor="#ffffff"
     bordercolor="#666666"
     borderopacity="1"
     objecttolerance="10"
     gridtolerance="10"
     guidetolerance="10"
     inkscape:pageopacity="0"
     inkscape:pageshadow="2"
     inkscape:window-width="2482"
     inkscape:window-height="1411"
     id="namedview51"
     showgrid="false"
     inkscape:zoom="1.178"
     inkscape:cx="500"
     inkscape:cy="500"
     inkscape:window-x="1911"
     inkscape:window-y="-9"
     inkscape:window-maximized="1"
     inkscape:current-layer="Layer_1" />
  <defs
     id="defs4">
    <style
       id="style2">
      .cls-1 {
        fill: #0a97d9;
      }

      .cls-2 {
        fill: #fff;
      }
    </style>
  </defs>
  <title
     id="title6">Artboard 1</title>
  <rect
     class="cls-1"
     width="1000"
     height="1000"
     id="rect8" />
  <polygon
     class="cls-2"
     points="130.29 84.14 130.29 285.67 96.39 285.67 96.39 131.41 96.1 131.41 72.33 156.07 72.02 156.07 72.02 120.7 103.23 84.14 130.29 84.14"
     id="polygon10" />
  <path
     class="cls-2"
     d="M233.49,285.72V253h13.68V226.54H233.49V84.09H200.18l-58.59,148.1V253h59.78v32.71Zm-62.16-59.18,30.33-83h.3v83Z"
     id="path38" />
  <g
     id="g46">
    <path
       class="cls-2"
       d="M769.58,729.62C757,712.62,675.7,609,561.72,609c-99,0-204.85,89.76-204.85,89.76s-39.77-81.4-121.13-89.22c-.47,0-1-.11-1.52-.11h-.51c-1.7.1-3.29,1.75-3.1,3.22a9,9,0,0,0,1.27,3C242.37,633,269.13,682.55,269.13,732c0,49.64-26.92,99.3-37.31,116.63l-.71,1.1a3.3,3.3,0,0,0-.5,1.72,3.23,3.23,0,0,0,3,3.2l.88-.07a3.14,3.14,0,0,0,.85-.08c81.61-7.6,121.53-89.25,121.53-89.25s105.88,89.77,204.85,89.77c114,0,195.27-103.64,207.86-120.61.34-.46.62-.86.87-1.16a3.36,3.36,0,0,0,.27-1.25,3.18,3.18,0,0,0-.27-1.24c-.25-.35-.53-.75-.87-1.17M625.1,745.12a33.26,33.26,0,1,1,33.3-33.27,33.28,33.28,0,0,1-33.3,33.27"
       id="path40" />
    <path
       class="cls-2"
       d="M233.18,414.17a3.46,3.46,0,0,0-.63-.14,3.29,3.29,0,0,0-3.27,3.31V440a3.23,3.23,0,0,0,.95,2.35c55,47.8,107.11,3,119.17-8.83a3.3,3.3,0,0,1,.86-.92,3.36,3.36,0,0,1,1.81-.59,3.17,3.17,0,0,1,2.21.88.52.52,0,0,0,.16.14c62.15,59.3,127.31,11.27,140.87,0l1.33-1.22a2.9,2.9,0,0,1,1.24-.25,3,3,0,0,1,1.29.25l1.35,1.22c13.55,11.27,78.71,59.3,140.85,0a.94.94,0,0,0,.12-.14,3.2,3.2,0,0,1,2.21-.88,3.28,3.28,0,0,1,1.81.59,3.62,3.62,0,0,1,.91.92c12.05,11.84,64.09,56.63,119.15,8.83a3.31,3.31,0,0,0,.95-2.35V417.34a3.25,3.25,0,0,0-3.23-3.31,3.47,3.47,0,0,0-.7.14c-.51.29-1,.57-1.65.86-16.92,8.47-69.4,28.63-117-16.44-.45-.41-.92-.83-1.39-1.32a3.42,3.42,0,0,0-1.39-.3,5.91,5.91,0,0,0-1,.15,3.74,3.74,0,0,0-1.66,1.29c-14.2,10.82-79.36,54.94-137.39.81l-.85-.83a3.64,3.64,0,0,0-2.36-1,3.47,3.47,0,0,0-2.27,1l-.9.83c-58,54.13-123.24,10-137.42-.81a3.54,3.54,0,0,0-1.61-1.29,6.85,6.85,0,0,0-1-.15,3.72,3.72,0,0,0-1.37.3,13.27,13.27,0,0,1-1.39,1.32c-47.63,45.07-100.1,24.91-117,16.44-.59-.29-1.16-.57-1.67-.86"
       id="path42" />
    <path
       class="cls-2"
       d="M349.4,516.08a3.55,3.55,0,0,1,.87-.9,3.36,3.36,0,0,1,1.8-.62,3.19,3.19,0,0,1,2.22.91.5.5,0,0,0,.15.14c62.13,59.23,127.31,11.22,140.87,0l1.33-1.26a3.2,3.2,0,0,1,1.24-.21,3.47,3.47,0,0,1,1.31.21l1.33,1.26c13.55,11.22,78.7,59.23,140.86,0,0,0,.07-.08.11-.14a3.18,3.18,0,0,1,2.21-.91,3.25,3.25,0,0,1,1.8.62,3.58,3.58,0,0,1,.92.9c12,11.85,64.08,56.65,119.15,8.8a3.18,3.18,0,0,0,1-2.29V499.84a3.24,3.24,0,0,0-3.25-3.25,4.3,4.3,0,0,0-.7.13l-1.65.83c-16.91,8.48-69.42,28.59-117-16.42l-1.38-1.3a2.64,2.64,0,0,0-1.4-.33,2,2,0,0,0-1,.25,2.79,2.79,0,0,0-1.66,1.22c-14.18,10.8-79.36,54.93-137.4.8l-.85-.85a3.35,3.35,0,0,0-2.35-.91,3.22,3.22,0,0,0-2.27.91l-.9.85c-58,54.13-123.24,10-137.42-.8a2.71,2.71,0,0,0-1.61-1.22,2.25,2.25,0,0,0-1-.25,2.6,2.6,0,0,0-1.35.33c-.45.45-.93.88-1.42,1.3-47.63,45-100.09,24.9-117,16.42l-1.67-.83a4.32,4.32,0,0,0-.62-.13,3.26,3.26,0,0,0-3.28,3.25v22.75a3.13,3.13,0,0,0,.95,2.29c55,47.85,107.12,3,119.17-8.8"
       id="path44" />
  </g>
  <text
     xml:space="preserve"
     style="font-style:normal;font-weight:normal;font-size:40px;line-height:1.25;font-family:sans-serif;letter-spacing:0px;word-spacing:0px;fill:#000000;fill-opacity:1;stroke:none"
     x="313.75"
     y="206.20833"
     id="text3853"><tspan
       sodipodi:role="line"
       x="313.75"
       y="206.20833"
       style="font-style:normal;font-variant:normal;font-weight:normal;font-stretch:normal;font-size:85.33333588px;font-family:'Microsoft Sans Serif';-inkscape-font-specification:'Microsoft Sans Serif';fill:#ffffff"
       id="tspan67">水下生命</tspan></text>
</svg>
