<?xml version="1.0" encoding="UTF-8" standalone="no"?>
<svg
   xmlns:dc="http://purl.org/dc/elements/1.1/"
   xmlns:cc="http://creativecommons.org/ns#"
   xmlns:rdf="http://www.w3.org/1999/02/22-rdf-syntax-ns#"
   xmlns:svg="http://www.w3.org/2000/svg"
   xmlns="http://www.w3.org/2000/svg"
   xmlns:sodipodi="http://sodipodi.sourceforge.net/DTD/sodipodi-0.dtd"
   xmlns:inkscape="http://www.inkscape.org/namespaces/inkscape"
   id="Layer_1"
   data-name="Layer 1"
   viewBox="0 0 1000 1000"
   version="1.1"
   sodipodi:docname="TheGlobalGoals_Icons_Color_Goal_5.svg"
   inkscape:version="0.92.3 (2405546, 2018-03-11)">
  <metadata
     id="metadata4394">
    <rdf:RDF>
      <cc:Work
         rdf:about="">
        <dc:format>image/svg+xml</dc:format>
        <dc:type
           rdf:resource="http://purl.org/dc/dcmitype/StillImage" />
      </cc:Work>
    </rdf:RDF>
  </metadata>
  <sodipodi:namedview
     pagecolor="#ffffff"
     bordercolor="#666666"
     borderopacity="1"
     objecttolerance="10"
     gridtolerance="10"
     guidetolerance="10"
     inkscape:pageopacity="0"
     inkscape:pageshadow="2"
     inkscape:window-width="2482"
     inkscape:window-height="1411"
     id="namedview4392"
     showgrid="false"
     inkscape:zoom="1.178"
     inkscape:cx="500"
     inkscape:cy="500"
     inkscape:window-x="1911"
     inkscape:window-y="-9"
     inkscape:window-maximized="1"
     inkscape:current-layer="Layer_1" />
  <defs
     id="defs4347">
    <style
       id="style4345">
      .cls-1 {
        fill: #ff3a21;
      }

      .cls-2 {
        fill: #fff;
      }
    </style>
  </defs>
  <title
     id="title4349">Artboard 1</title>
  <rect
     class="cls-1"
     width="999.95"
     height="1000"
     id="rect4351" />
  <path
     class="cls-2"
     d="M159.44,147.64c-13.38,0-23.19,4.75-28.55,14h-.3V111.36h58.29V83.7H99.68V197.31h30.91v-4.48c0-11.89,5.36-18.44,14.87-18.44,10.41,0,14.59,7.15,14.59,18.16v48.77c0,10.71-3.88,18.13-14.29,18.13-11.6,0-15.75-7.73-15.75-19.61V214.55H99.06v22.9c0,30.63,12.2,50.26,46.7,50.26,34.2,0,48.17-18.14,48.17-46.1V192.25c0-31.82-16.35-44.61-34.49-44.61"
     id="path4381" />
  <g
     id="g4389">
    <path
       class="cls-2"
       d="M728.35,378.38H604.07a1.6,1.6,0,0,0-1.58,1.59v41.29a1.59,1.59,0,0,0,1.58,1.59h49.48l-54.95,55a161.9,161.9,0,0,0-100.35-34.76c-89.75,0-162.78,73-162.78,162.78,0,82.64,61.91,151,141.77,161.37v47.59h-49a1.57,1.57,0,0,0-1.6,1.57v44.27a1.57,1.57,0,0,0,1.6,1.58h49V909a1.57,1.57,0,0,0,1.58,1.58h44.24a1.59,1.59,0,0,0,1.6-1.58V862.21h49a1.57,1.57,0,0,0,1.57-1.58V816.36a1.57,1.57,0,0,0-1.57-1.57h-49V766.43C601.89,753.76,661,686.59,661,605.83a161.84,161.84,0,0,0-29.73-93.62L685.45,458v46.22a1.6,1.6,0,0,0,1.61,1.58h41.29a1.6,1.6,0,0,0,1.61-1.58V380a1.6,1.6,0,0,0-1.61-1.59M498.25,725.65A119.82,119.82,0,1,1,618.07,605.83,119.94,119.94,0,0,1,498.25,725.65"
       id="path4383" />
    <path
       class="cls-2"
       d="M572.65,556.65H427.32a1.52,1.52,0,0,0-1.58,1.42v35.18a1.5,1.5,0,0,0,1.58,1.44H572.65a1.51,1.51,0,0,0,1.61-1.44V558.07a1.53,1.53,0,0,0-1.61-1.42"
       id="path4385" />
    <path
       class="cls-2"
       d="M572.65,619.47H427.32a1.54,1.54,0,0,0-1.58,1.47v35.18a1.5,1.5,0,0,0,1.58,1.42H572.65a1.51,1.51,0,0,0,1.61-1.42V620.94a1.55,1.55,0,0,0-1.61-1.47"
       id="path4387" />
  </g>
  <text
     xml:space="preserve"
     style="font-style:normal;font-weight:normal;font-size:40px;line-height:1.25;font-family:sans-serif;letter-spacing:0px;word-spacing:0px;fill:#000000;fill-opacity:1;stroke:none"
     x="284.33334"
     y="207.79167"
     id="text3853"><tspan
       sodipodi:role="line"
       id="tspan3851"
       x="284.33334"
       y="207.79167"
       style="font-style:normal;font-variant:normal;font-weight:normal;font-stretch:normal;font-size:85.33333588px;font-family:'Microsoft Sans Serif';-inkscape-font-specification:'Microsoft Sans Serif';fill:#ffffff">性别平等</tspan></text>
</svg>
