<?xml version="1.0" encoding="UTF-8" standalone="no"?>
<svg
   xmlns:dc="http://purl.org/dc/elements/1.1/"
   xmlns:cc="http://creativecommons.org/ns#"
   xmlns:rdf="http://www.w3.org/1999/02/22-rdf-syntax-ns#"
   xmlns:svg="http://www.w3.org/2000/svg"
   xmlns="http://www.w3.org/2000/svg"
   xmlns:sodipodi="http://sodipodi.sourceforge.net/DTD/sodipodi-0.dtd"
   xmlns:inkscape="http://www.inkscape.org/namespaces/inkscape"
   id="Layer_1"
   data-name="Layer 1"
   viewBox="0 0 1000 1000"
   version="1.1"
   sodipodi:docname="TheGlobalGoals_Icons_Color_Goal_15.svg"
   inkscape:version="0.92.3 (2405546, 2018-03-11)">
  <metadata
     id="metadata53">
    <rdf:RDF>
      <cc:Work
         rdf:about="">
        <dc:format>image/svg+xml</dc:format>
        <dc:type
           rdf:resource="http://purl.org/dc/dcmitype/StillImage" />
      </cc:Work>
    </rdf:RDF>
  </metadata>
  <sodipodi:namedview
     pagecolor="#ffffff"
     bordercolor="#666666"
     borderopacity="1"
     objecttolerance="10"
     gridtolerance="10"
     guidetolerance="10"
     inkscape:pageopacity="0"
     inkscape:pageshadow="2"
     inkscape:window-width="2482"
     inkscape:window-height="1411"
     id="namedview51"
     showgrid="false"
     inkscape:zoom="1.178"
     inkscape:cx="500"
     inkscape:cy="500"
     inkscape:window-x="1911"
     inkscape:window-y="-9"
     inkscape:window-maximized="1"
     inkscape:current-layer="Layer_1" />
  <defs
     id="defs4">
    <style
       id="style2">
      .cls-1 {
        fill: #56c02b;
      }

      .cls-2 {
        fill: #fff;
      }
    </style>
  </defs>
  <title
     id="title6">Artboard 1</title>
  <rect
     class="cls-1"
     width="1000"
     height="1000"
     id="rect8" />
  <polygon
     class="cls-2"
     points="73.22 120.29 73.22 155.67 73.52 155.67 97.3 130.99 97.61 130.99 97.61 285.33 131.5 285.33 131.5 83.7 104.44 83.7 73.22 120.29"
     id="polygon18" />
  <path
     class="cls-2"
     d="M212.1,147.65c-13.38,0-23.19,4.75-28.55,14h-.3V111.36h58.29V83.72H152.33v113.6h30.92v-4.48c0-11.88,5.35-18.43,14.86-18.43,10.42,0,14.59,7.14,14.59,18.15v48.77c0,10.69-3.87,18.13-14.28,18.13-11.59,0-15.74-7.73-15.74-19.63V214.56h-31v22.91c0,30.62,12.19,50.24,46.69,50.24,34.2,0,48.17-18.14,48.17-46.09V192.25c0-31.82-16.35-44.6-34.49-44.6"
     id="path20" />
  <g
     id="g48">
    <path
       class="cls-2"
       d="M419.19,676.12a2.21,2.21,0,0,1,2.21,2.21v72.82a2.2,2.2,0,0,1-2.21,2.21H389.73a2.21,2.21,0,0,1-2.22-2.21V678.33a2.21,2.21,0,0,1,2.22-2.21Z"
       id="path34" />
    <path
       class="cls-2"
       d="M742.8,784.62H257.19a2.28,2.28,0,0,0-2.22,2.29v29.68a2.21,2.21,0,0,0,2.22,2.18H742.8a2.24,2.24,0,0,0,2.23-2.18V786.91a2.3,2.3,0,0,0-2.23-2.29"
       id="path36" />
    <path
       class="cls-2"
       d="M742.8,843.61H257.19A2.22,2.22,0,0,0,255,845.8v29.77a2.23,2.23,0,0,0,2.22,2.19H742.8a2.25,2.25,0,0,0,2.23-2.19V845.8a2.24,2.24,0,0,0-2.23-2.19"
       id="path38" />
    <path
       class="cls-2"
       d="M650.39,595.52c-6.06-4.75-22.26-15.83-42-15.83-14.12,0-27.25,5.56-39,16.57a4.19,4.19,0,0,0-1.3,3V602a4.19,4.19,0,0,0,1.39,3.32,3.88,3.88,0,0,0,3.42.8,5.28,5.28,0,0,0,.91-.23,6.7,6.7,0,0,0,2.43-1.54c2.54-1.71,9.5-4,19.45-4,10.28,0,30.5,2.76,50,21l.45.4a5.87,5.87,0,0,0,4.22,1.76,5.72,5.72,0,0,0,4.11-1.72l.4-.41c19.64-18.24,39.82-21,50.1-21,10,0,17,2.34,19.5,4a7.21,7.21,0,0,0,2.69,1.64A5.93,5.93,0,0,0,730,606a4.16,4.16,0,0,0,3.06-4v-2.34a4.22,4.22,0,0,0-1.3-3c-11.86-11.3-25.13-17-39.47-17-19.57,0-35.69,10.91-41.93,15.85"
       id="path40" />
    <path
       class="cls-2"
       d="M620.26,402a4.07,4.07,0,0,0-2.12,2.56l-.49,1.62a4.11,4.11,0,0,0,.64,3.65,4,4,0,0,0,3,1.64,1.59,1.59,0,0,0,.61,0,5.15,5.15,0,0,0,2.34-.6,12.21,12.21,0,0,1,3-.33c2.17,0,21.75.66,34.69,22.66l.17.32a4.94,4.94,0,0,0,3.1,2.48,5.91,5.91,0,0,0,1.55.24,5.25,5.25,0,0,0,2.45-.6l.32-.16a48.39,48.39,0,0,1,21.66-5.36c12.27,0,20.28,5,22.15,7.09A5.6,5.6,0,0,0,714.9,439a11.43,11.43,0,0,0,1.58.76,3.29,3.29,0,0,0,.72.1,2,2,0,0,0,.43,0,4.21,4.21,0,0,0,1.93-.48,4.1,4.1,0,0,0,2.06-2.49l.41-1.43a3.74,3.74,0,0,0,.17-1.18,4,4,0,0,0-.57-2.09c-9.43-16.37-23.11-19.79-32.94-19.79a51.65,51.65,0,0,0-17.48,3.28c-4.44-6-15.69-18.35-32.75-18.35a40.46,40.46,0,0,0-18.2,4.6"
       id="path42" />
    <path
       class="cls-2"
       d="M517.65,476.69l.14,2.19a4.15,4.15,0,0,0,5.21,3.76,5.33,5.33,0,0,0,.71-.22,5.41,5.41,0,0,0,2.1-1.55c2.06-1.49,8.71-4.21,18.52-4.21,9.43,0,23.77,2.52,38.39,14.53l.34.35a5.78,5.78,0,0,0,3.75,1.41h.36a5.69,5.69,0,0,0,3.81-1.83l.32-.37c16.19-17.13,33.62-19.67,42.57-19.67,6.38,0,10.9,1.31,12.66,2.31a6.46,6.46,0,0,0,2.53,1.31,4.86,4.86,0,0,0,2.8-.13,4.14,4.14,0,0,0,2.75-4.17l-.11-1.9a4.11,4.11,0,0,0-1.46-2.89c-9.66-8.13-20.09-12.22-31.06-12.22-17.08,0-30.71,10.08-36.35,15-5.16-3.52-17.7-10.76-32.4-10.76-12.92,0-24.5,5.37-34.45,15.92a4.3,4.3,0,0,0-1.13,3.11"
       id="path44" />
    <path
       class="cls-2"
       d="M271.91,515.67A52.65,52.65,0,0,1,324.56,463c1.14,0,2.25.1,3.37.17a71.19,71.19,0,1,1,135,36.44A79.58,79.58,0,0,1,445.65,656.9c-3.21,0-106.23-.62-106.23-.62h0a56.29,56.29,0,0,1-41-94.95A52.59,52.59,0,0,1,271.91,515.67Z"
       id="path46" />
  </g>
  <text
     xml:space="preserve"
     style="font-style:normal;font-weight:normal;font-size:40px;line-height:1.25;font-family:sans-serif;letter-spacing:0px;word-spacing:0px;fill:#000000;fill-opacity:1;stroke:none"
     x="314"
     y="206.20833"
     id="text3853"><tspan
       sodipodi:role="line"
       x="314"
       y="206.20833"
       style="font-style:normal;font-variant:normal;font-weight:normal;font-stretch:normal;font-size:85.33333588px;font-family:'Microsoft Sans Serif';-inkscape-font-specification:'Microsoft Sans Serif';fill:#ffffff"
       id="tspan67">陆地生命</tspan></text>
</svg>
