<?xml version="1.0" encoding="UTF-8" standalone="no"?>
<svg
   xmlns:dc="http://purl.org/dc/elements/1.1/"
   xmlns:cc="http://creativecommons.org/ns#"
   xmlns:rdf="http://www.w3.org/1999/02/22-rdf-syntax-ns#"
   xmlns:svg="http://www.w3.org/2000/svg"
   xmlns="http://www.w3.org/2000/svg"
   xmlns:sodipodi="http://sodipodi.sourceforge.net/DTD/sodipodi-0.dtd"
   xmlns:inkscape="http://www.inkscape.org/namespaces/inkscape"
   id="Layer_1"
   data-name="Layer 1"
   viewBox="0 0 1000 1000"
   version="1.1"
   sodipodi:docname="TheGlobalGoals_Icons_Color_Goal_3.svg"
   inkscape:version="0.92.3 (2405546, 2018-03-11)">
  <metadata
     id="metadata4120">
    <rdf:RDF>
      <cc:Work
         rdf:about="">
        <dc:format>image/svg+xml</dc:format>
        <dc:type
           rdf:resource="http://purl.org/dc/dcmitype/StillImage" />
      </cc:Work>
    </rdf:RDF>
  </metadata>
  <sodipodi:namedview
     pagecolor="#ffffff"
     bordercolor="#666666"
     borderopacity="1"
     objecttolerance="10"
     gridtolerance="10"
     guidetolerance="10"
     inkscape:pageopacity="0"
     inkscape:pageshadow="2"
     inkscape:window-width="2482"
     inkscape:window-height="1411"
     id="namedview4118"
     showgrid="false"
     inkscape:zoom="1.178"
     inkscape:cx="500"
     inkscape:cy="500"
     inkscape:window-x="1911"
     inkscape:window-y="-9"
     inkscape:window-maximized="1"
     inkscape:current-layer="g4115" />
  <defs
     id="defs4079">
    <style
       id="style4077">
      .cls-1 {
        fill: #4c9f38;
      }

      .cls-2 {
        fill: #fff;
      }
    </style>
  </defs>
  <title
     id="title4081">Artboard 1</title>
  <rect
     id="_Path_"
     data-name="&lt;Path&gt;"
     class="cls-1"
     y="-0.02"
     width="1000"
     height="1000.03" />
  <g
     id="g4115">
    <path
       id="_Path_2"
       data-name="&lt;Path&gt;"
       class="cls-2"
       d="M142.7,288.14c34.21,0,49.08-18.15,49.08-46.1V212.31c0-18.44-8-30.34-25-34.2,14-4.46,23.19-15.77,23.19-32.71V127.85c0-28.55-13.68-46.09-44.9-46.09-35.1,0-47.3,20.8-47.3,50.55v17.84h30.93V129.63c0-12.49,3.88-19.62,14.58-19.62s14.56,7.13,14.56,18.13v21.71c0,10.71-7.13,16.35-18.12,16.35h-12.8v25.89h14.28c11.89,0,16.64,5.64,16.64,16.35v33.31c0,10.7-4.75,18.15-15.16,18.15-11.59,0-15.76-7.75-15.76-19.64V211.42H96v26.46c0,30.64,12.18,50.26,46.67,50.26" />
    <g
       id="g4088">
      <path
         id="_Path_3"
         data-name="&lt;Path&gt;"
         class="cls-2"
         d="M835.26,625c0-28.14-18-51-45.4-51-13.67,0-30.17,15-39.13,24.19-9-9.23-24.36-24.21-38-24.21-27.34,0-46.51,22.81-46.51,51a51.51,51.51,0,0,0,14.51,36h0l70.1,70.23,70-70.15-.06-.05A51.55,51.55,0,0,0,835.26,625Z" />
      <g
         id="_Group_"
         data-name="&lt;Group&gt;">
        <path
           id="_Path_4"
           data-name="&lt;Path&gt;"
           class="cls-2"
           d="M536.81,845.88l-.72,0a11.48,11.48,0,0,1-10.63-9.54L489.85,628.93l-53.94,100a11.51,11.51,0,0,1-21.52-3.83l-22.9-160.05-41.89,94.1A11.54,11.54,0,0,1,339.08,666H176.25a11.52,11.52,0,0,1,0-23H331.6l55.11-123.77a11.51,11.51,0,0,1,21.91,3l23.61,165,53.19-98.63a11.52,11.52,0,0,1,21.48,3.52l33,192.07L660.05,385a11.52,11.52,0,0,1,21.4-1.68l63.23,131.09a11.51,11.51,0,1,1-20.73,10L673.57,420,547.82,837.68A11.5,11.5,0,0,1,536.81,845.88Z" />
      </g>
    </g>
    <text
       xml:space="preserve"
       style="font-style:normal;font-weight:normal;font-size:40px;line-height:1.25;font-family:sans-serif;letter-spacing:0px;word-spacing:0px;fill:#000000;fill-opacity:1;stroke:none"
       x="284.33334"
       y="153.79167"
       id="text3853"><tspan
         sodipodi:role="line"
         id="tspan3851"
         x="284.33334"
         y="153.79167"
         style="font-style:normal;font-variant:normal;font-weight:normal;font-stretch:normal;font-size:85.33333588px;font-family:'Microsoft Sans Serif';-inkscape-font-specification:'Microsoft Sans Serif';fill:#ffffff">良好的健康</tspan><tspan
         sodipodi:role="line"
         x="284.33334"
         y="260.45834"
         style="font-style:normal;font-variant:normal;font-weight:normal;font-stretch:normal;font-size:85.33333588px;font-family:'Microsoft Sans Serif';-inkscape-font-specification:'Microsoft Sans Serif';fill:#ffffff"
         id="tspan4140">与福祉</tspan></text>
  </g>
</svg>
