<?xml version="1.0" encoding="UTF-8" standalone="no"?>
<svg
   xmlns:dc="http://purl.org/dc/elements/1.1/"
   xmlns:cc="http://creativecommons.org/ns#"
   xmlns:rdf="http://www.w3.org/1999/02/22-rdf-syntax-ns#"
   xmlns:svg="http://www.w3.org/2000/svg"
   xmlns="http://www.w3.org/2000/svg"
   xmlns:sodipodi="http://sodipodi.sourceforge.net/DTD/sodipodi-0.dtd"
   xmlns:inkscape="http://www.inkscape.org/namespaces/inkscape"
   id="Layer_1"
   data-name="Layer 1"
   viewBox="0 0 1000 1000"
   version="1.1"
   sodipodi:docname="TheGlobalGoals_Icons_Color_Goal_11.svg"
   inkscape:version="0.92.3 (2405546, 2018-03-11)">
  <metadata
     id="metadata95">
    <rdf:RDF>
      <cc:Work
         rdf:about="">
        <dc:format>image/svg+xml</dc:format>
        <dc:type
           rdf:resource="http://purl.org/dc/dcmitype/StillImage" />
      </cc:Work>
    </rdf:RDF>
  </metadata>
  <sodipodi:namedview
     pagecolor="#ffffff"
     bordercolor="#666666"
     borderopacity="1"
     objecttolerance="10"
     gridtolerance="10"
     guidetolerance="10"
     inkscape:pageopacity="0"
     inkscape:pageshadow="2"
     inkscape:window-width="2482"
     inkscape:window-height="1411"
     id="namedview93"
     showgrid="false"
     inkscape:zoom="1.178"
     inkscape:cx="500"
     inkscape:cy="500"
     inkscape:window-x="1911"
     inkscape:window-y="-9"
     inkscape:window-maximized="1"
     inkscape:current-layer="Layer_1" />
  <defs
     id="defs4">
    <style
       id="style2">
      .cls-1 {
        fill: #fd9d24;
      }

      .cls-2 {
        fill: #fff;
      }
    </style>
  </defs>
  <title
     id="title6">Artboard 1</title>
  <rect
     class="cls-1"
     width="1000"
     height="1000"
     id="rect8" />
  <polygon
     class="cls-2"
     points="71.65 120.39 71.65 155.77 71.94 155.77 95.73 131.09 96.04 131.09 96.04 285.43 129.94 285.43 129.94 83.8 102.87 83.8 71.65 120.39"
     id="polygon62" />
  <polygon
     class="cls-2"
     points="148.97 120.39 148.97 155.77 149.27 155.77 173.06 131.09 173.35 131.09 173.35 285.43 207.26 285.43 207.26 83.8 180.21 83.8 148.97 120.39"
     id="polygon64" />
  <g
     id="g90">
    <g
       id="g80">
      <path
         class="cls-2"
         d="M165,761.31H315.38a3.67,3.67,0,0,0,2.72-6.16l-.21-.22-74.84-96.82-.73-.81a3.67,3.67,0,0,0-2.72-1.2,3.75,3.75,0,0,0-2.42.95l-.45.52-.71.79-73,95.81-1.12,1.37a3.64,3.64,0,0,0-.63,2.06A3.71,3.71,0,0,0,165,761.31Z"
         id="path76" />
      <path
         class="cls-2"
         d="M314.92,775H164.2a3.69,3.69,0,0,0-3.69,3.69V896.59a3.7,3.7,0,0,0,3.69,3.71h48.51V826.09a3.68,3.68,0,0,1,3.69-3.69h45a3.68,3.68,0,0,1,3.69,3.69V900.3h49.8a3.7,3.7,0,0,0,3.69-3.71V778.65A3.69,3.69,0,0,0,314.92,775Z"
         id="path78" />
    </g>
    <path
       class="cls-2"
       d="M835.83,744.08H686.66a3.59,3.59,0,0,0-3.65,3.55V898.26a3.6,3.6,0,0,0,3.65,3.54H835.83a3.6,3.6,0,0,0,3.66-3.54V747.63a3.59,3.59,0,0,0-3.66-3.55m-81.62,98.34a3.6,3.6,0,0,1-3.64,3.56H706a3.61,3.61,0,0,1-3.66-3.56V815.34a3.6,3.6,0,0,1,3.66-3.56h44.57a3.59,3.59,0,0,1,3.64,3.56Zm0-50.06a3.6,3.6,0,0,1-3.64,3.56H706a3.61,3.61,0,0,1-3.66-3.56v-27.1a3.61,3.61,0,0,1,3.66-3.54h44.57a3.59,3.59,0,0,1,3.64,3.54Zm68.12,50.06a3.6,3.6,0,0,1-3.66,3.56H774.12a3.6,3.6,0,0,1-3.66-3.56V815.34a3.6,3.6,0,0,1,3.66-3.56h44.55a3.6,3.6,0,0,1,3.66,3.56Zm0-50.06a3.6,3.6,0,0,1-3.66,3.56H774.12a3.6,3.6,0,0,1-3.66-3.56v-27.1a3.6,3.6,0,0,1,3.66-3.54h44.55a3.6,3.6,0,0,1,3.66,3.54Z"
       id="path82" />
    <path
       class="cls-2"
       d="M489.06,394.44h-146a3.57,3.57,0,0,0-3.56,3.58v498.9a3.58,3.58,0,0,0,3.56,3.57h146a3.6,3.6,0,0,0,3.59-3.57V398a3.59,3.59,0,0,0-3.59-3.58M402.22,843.65a1.92,1.92,0,0,1-1.92,1.92H366.88a1.92,1.92,0,0,1-1.92-1.92V806.41a1.91,1.91,0,0,1,1.92-1.91H400.3a1.91,1.91,0,0,1,1.92,1.91Zm0-85.55A1.91,1.91,0,0,1,400.3,760H366.88A1.91,1.91,0,0,1,365,758.1V720.87a1.91,1.91,0,0,1,1.92-1.92H400.3a1.91,1.91,0,0,1,1.92,1.92Zm0-85.53a1.92,1.92,0,0,1-1.92,1.92H366.88a1.92,1.92,0,0,1-1.92-1.92V635.31a1.92,1.92,0,0,1,1.92-1.91H400.3a1.92,1.92,0,0,1,1.92,1.91Zm0-85.55a1.92,1.92,0,0,1-1.92,1.92H366.88A1.92,1.92,0,0,1,365,587V549.76a1.9,1.9,0,0,1,1.92-1.89H400.3a1.9,1.9,0,0,1,1.92,1.89Zm0-85.53a1.92,1.92,0,0,1-1.92,1.91H366.88a1.92,1.92,0,0,1-1.92-1.91V464.23a1.92,1.92,0,0,1,1.92-1.92H400.3a1.92,1.92,0,0,1,1.92,1.92Zm65.55,342.16a1.92,1.92,0,0,1-1.93,1.92H432.43a1.91,1.91,0,0,1-1.92-1.92V806.41a1.91,1.91,0,0,1,1.92-1.91h33.41a1.91,1.91,0,0,1,1.93,1.91Zm0-85.55a1.91,1.91,0,0,1-1.93,1.92H432.43a1.9,1.9,0,0,1-1.92-1.92V720.87a1.9,1.9,0,0,1,1.92-1.92h33.41a1.91,1.91,0,0,1,1.93,1.92Zm0-85.53a1.92,1.92,0,0,1-1.93,1.92H432.43a1.91,1.91,0,0,1-1.92-1.92V635.31a1.91,1.91,0,0,1,1.92-1.91h33.41a1.92,1.92,0,0,1,1.93,1.91Zm0-85.55a1.92,1.92,0,0,1-1.93,1.92H432.43a1.91,1.91,0,0,1-1.92-1.92V549.76a1.9,1.9,0,0,1,1.92-1.89h33.41a1.9,1.9,0,0,1,1.93,1.89Zm0-85.53a1.92,1.92,0,0,1-1.93,1.91H432.43a1.91,1.91,0,0,1-1.92-1.91V464.23a1.91,1.91,0,0,1,1.92-1.92h33.41a1.92,1.92,0,0,1,1.93,1.92Z"
       id="path84" />
    <path
       class="cls-2"
       d="M839.32,728.92a3,3,0,0,1-3,3H686.17a3,3,0,0,1-3-3v-30a3,3,0,0,1,3-3H836.32a3,3,0,0,1,3,3Z"
       id="path86" />
    <path
       class="cls-2"
       d="M665.4,488.65a3.85,3.85,0,0,0-3.67-2.79,3.81,3.81,0,0,0-2.09.69l-.27.18-1.23,1.56-143.48,182-.66.89a4.13,4.13,0,0,0-1.25,2.84V897.67a3.57,3.57,0,0,0,3.58,3.56H662.17a3.56,3.56,0,0,0,3.57-3.56V490.15A3.71,3.71,0,0,0,665.4,488.65ZM605,587.49l1-1.28c9.81-12.6,26.36-33,34.42-42.86l1.06-1.26a4.17,4.17,0,0,1,3.21-1.52,4.09,4.09,0,0,1,4,3.34V590a4.12,4.12,0,0,1-4,4.1c-.07,0-.12,0-.18,0s-.12,0-.19,0H608.51c-.07,0-.12,0-.18,0s-.12,0-.18,0a4.13,4.13,0,0,1-4-4.1A4.17,4.17,0,0,1,605,587.49Zm-22.7,254.9a3.56,3.56,0,0,1-3.57,3.57H535.21a3.56,3.56,0,0,1-3.57-3.57V815.16a3.56,3.56,0,0,1,3.57-3.56h43.51a3.56,3.56,0,0,1,3.57,3.56Zm0-50.32a3.56,3.56,0,0,1-3.57,3.57H535.21a3.56,3.56,0,0,1-3.57-3.57V764.84a3.55,3.55,0,0,1,3.57-3.57h43.51a3.55,3.55,0,0,1,3.57,3.57Zm0-50.32a3.56,3.56,0,0,1-3.57,3.56H535.21a3.56,3.56,0,0,1-3.57-3.56V714.51a3.56,3.56,0,0,1,3.57-3.57h43.51a3.56,3.56,0,0,1,3.57,3.57Zm.12-110.27v60a3.58,3.58,0,0,1-3.57,3.57h-43.5a3.57,3.57,0,0,1-3.59-3.57v-7.55a4.14,4.14,0,0,1,.27-1.33,2.92,2.92,0,0,1,.22-.42,3,3,0,0,1,.32-.47c.1-.17.27-.39.4-.58,5.56-8,30.66-38.88,41.2-51.8l1.06-1.28a4.15,4.15,0,0,1,3.21-1.51,4.1,4.1,0,0,1,4,3.33ZM648.8,842.39a3.57,3.57,0,0,1-3.57,3.57h-43.5a3.57,3.57,0,0,1-3.59-3.57V815.16a3.57,3.57,0,0,1,3.59-3.56h43.5a3.57,3.57,0,0,1,3.57,3.56Zm0-50.32a3.57,3.57,0,0,1-3.57,3.57h-43.5a3.57,3.57,0,0,1-3.59-3.57V764.84a3.56,3.56,0,0,1,3.59-3.57h43.5a3.57,3.57,0,0,1,3.57,3.57Zm0-50.32a3.58,3.58,0,0,1-3.57,3.56h-43.5a3.57,3.57,0,0,1-3.59-3.56V714.51a3.57,3.57,0,0,1,3.59-3.57h43.5a3.57,3.57,0,0,1,3.57,3.57Zm0-50.33a3.57,3.57,0,0,1-3.57,3.56h-43.5a3.57,3.57,0,0,1-3.59-3.56V664.19a3.57,3.57,0,0,1,3.59-3.57h43.5a3.57,3.57,0,0,1,3.57,3.57Zm0-50.33a3.57,3.57,0,0,1-3.57,3.57h-43.5a3.57,3.57,0,0,1-3.59-3.57V613.86a3.57,3.57,0,0,1,3.59-3.58h43.5a3.57,3.57,0,0,1,3.57,3.58Z"
       id="path88" />
  </g>
  <text
     xml:space="preserve"
     style="font-style:normal;font-weight:normal;font-size:40px;line-height:1.25;font-family:sans-serif;letter-spacing:0px;word-spacing:0px;fill:#000000;fill-opacity:1;stroke:none"
     x="314"
     y="153.70833"
     id="text3853"><tspan
       sodipodi:role="line"
       x="314"
       y="153.70833"
       style="font-style:normal;font-variant:normal;font-weight:normal;font-stretch:normal;font-size:85.33333588px;font-family:'Microsoft Sans Serif';-inkscape-font-specification:'Microsoft Sans Serif';fill:#ffffff"
       id="tspan66">可持续城市</tspan><tspan
       sodipodi:role="line"
       x="314"
       y="260.375"
       style="font-style:normal;font-variant:normal;font-weight:normal;font-stretch:normal;font-size:85.33333588px;font-family:'Microsoft Sans Serif';-inkscape-font-specification:'Microsoft Sans Serif';fill:#ffffff"
       id="tspan109">和社区</tspan></text>
</svg>
