<?xml version="1.0" encoding="UTF-8" standalone="no"?>
<svg
   xmlns:dc="http://purl.org/dc/elements/1.1/"
   xmlns:cc="http://creativecommons.org/ns#"
   xmlns:rdf="http://www.w3.org/1999/02/22-rdf-syntax-ns#"
   xmlns:svg="http://www.w3.org/2000/svg"
   xmlns="http://www.w3.org/2000/svg"
   xmlns:sodipodi="http://sodipodi.sourceforge.net/DTD/sodipodi-0.dtd"
   xmlns:inkscape="http://www.inkscape.org/namespaces/inkscape"
   id="Layer_1"
   data-name="Layer 1"
   viewBox="0 0 1000 1000"
   version="1.1"
   sodipodi:docname="TheGlobalGoals_Icons_Color_Goal_9.svg"
   inkscape:version="0.92.3 (2405546, 2018-03-11)">
  <metadata
     id="metadata52">
    <rdf:RDF>
      <cc:Work
         rdf:about="">
        <dc:format>image/svg+xml</dc:format>
        <dc:type
           rdf:resource="http://purl.org/dc/dcmitype/StillImage" />
      </cc:Work>
    </rdf:RDF>
  </metadata>
  <sodipodi:namedview
     pagecolor="#ffffff"
     bordercolor="#666666"
     borderopacity="1"
     objecttolerance="10"
     gridtolerance="10"
     guidetolerance="10"
     inkscape:pageopacity="0"
     inkscape:pageshadow="2"
     inkscape:window-width="2482"
     inkscape:window-height="1411"
     id="namedview50"
     showgrid="false"
     inkscape:zoom="1.178"
     inkscape:cx="500"
     inkscape:cy="500"
     inkscape:window-x="1911"
     inkscape:window-y="-9"
     inkscape:window-maximized="1"
     inkscape:current-layer="Layer_1" />
  <defs
     id="defs4">
    <style
       id="style2">
      .cls-1 {
        fill: #fd6925;
      }

      .cls-2 {
        fill: #fff;
      }
    </style>
  </defs>
  <title
     id="title6">Artboard 1</title>
  <rect
     id="_Path_"
     data-name="&lt;Path&gt;"
     class="cls-1"
     y="-0.01"
     width="1000"
     height="1000.02" />
  <path
     id="_Compound_Path_"
     data-name="&lt;Compound Path&gt;"
     class="cls-2"
     d="M183.15,134.53c0-31.22-13.68-53.8-49.34-53.8-36,0-49.94,19.61-49.94,50.82v29.73c0,33,13.07,49.64,37.46,49.64,14.27,0,22.88-6.55,27.93-16.34h.29V238c0,12.19-4.75,20.81-16.93,20.81S116,251.64,116,239.15V225.78H85.05v10.71c0,29.71,10.71,50.52,48.17,50.52,35.65,0,49.93-22.89,49.93-54.4Zm-33.6,30.91c-.59,11.29-5.34,18.42-16,18.42-11.58,0-16-7.13-16-20.21V128.58c0-12.78,4.74-20.21,16.35-20.21,11.29,0,15.74,7.72,15.74,20.21Z" />
  <path
     id="_Compound_Path_2"
     data-name="&lt;Compound Path&gt;"
     class="cls-2"
     d="M749.88,657.28,631,588.67V451.42a8.1,8.1,0,0,0-4-7l-122.9-71a8.1,8.1,0,0,0-8.11,0L373,444.4a8.1,8.1,0,0,0-4,7V588.67L250.12,657.28a8.11,8.11,0,0,0-4.06,7v142a8.12,8.12,0,0,0,4.06,7l122.91,71a8.15,8.15,0,0,0,8.11,0L500,815.61l118.84,68.61a8.15,8.15,0,0,0,8.11,0l122.93-71a8.12,8.12,0,0,0,4.06-7v-142A8.09,8.09,0,0,0,749.88,657.28Zm-258,134.92L393.3,735.27l98.59-56.92ZM606.68,593.36,508.1,650.25V536.43Zm-114.79,56.9-98.58-56.91,98.58-56.92Zm24.33,14L622.9,602.72,729.61,664.3,622.9,725.91Zm98.57-85-98.57-56.93,98.57-56.91Zm-131-56.93-98.59,56.93V465.47ZM369,863.15l-106.7-61.59V678.35L369,740Zm16.21,0V749.32l98.59,56.93Zm352.53-61.59L631,863.15V740l106.72-61.61Z" />
  <text
     xml:space="preserve"
     style="font-style:normal;font-weight:normal;font-size:40px;line-height:1.25;font-family:sans-serif;letter-spacing:0px;word-spacing:0px;fill:#000000;fill-opacity:1;stroke:none"
     x="284.25"
     y="154.04166"
     id="text3853"><tspan
       sodipodi:role="line"
       x="284.25"
       y="154.04166"
       style="font-style:normal;font-variant:normal;font-weight:normal;font-stretch:normal;font-size:85.33333588px;font-family:'Microsoft Sans Serif';-inkscape-font-specification:'Microsoft Sans Serif';fill:#ffffff"
       id="tspan73">产业、创新</tspan><tspan
       sodipodi:role="line"
       x="284.25"
       y="260.70831"
       style="font-style:normal;font-variant:normal;font-weight:normal;font-stretch:normal;font-size:85.33333588px;font-family:'Microsoft Sans Serif';-inkscape-font-specification:'Microsoft Sans Serif';fill:#ffffff"
       id="tspan66">和基础设施</tspan></text>
</svg>
