<?xml version="1.0" encoding="UTF-8" standalone="no"?>
<svg
   xmlns:dc="http://purl.org/dc/elements/1.1/"
   xmlns:cc="http://creativecommons.org/ns#"
   xmlns:rdf="http://www.w3.org/1999/02/22-rdf-syntax-ns#"
   xmlns:svg="http://www.w3.org/2000/svg"
   xmlns="http://www.w3.org/2000/svg"
   xmlns:sodipodi="http://sodipodi.sourceforge.net/DTD/sodipodi-0.dtd"
   xmlns:inkscape="http://www.inkscape.org/namespaces/inkscape"
   id="Layer_1"
   data-name="Layer 1"
   viewBox="0 0 1000 1000"
   version="1.1"
   sodipodi:docname="TheGlobalGoals_Icons_Color_Goal_6.svg"
   inkscape:version="0.92.3 (2405546, 2018-03-11)">
  <metadata
     id="metadata4536">
    <rdf:RDF>
      <cc:Work
         rdf:about="">
        <dc:format>image/svg+xml</dc:format>
        <dc:type
           rdf:resource="http://purl.org/dc/dcmitype/StillImage" />
      </cc:Work>
    </rdf:RDF>
  </metadata>
  <sodipodi:namedview
     pagecolor="#ffffff"
     bordercolor="#666666"
     borderopacity="1"
     objecttolerance="10"
     gridtolerance="10"
     guidetolerance="10"
     inkscape:pageopacity="0"
     inkscape:pageshadow="2"
     inkscape:window-width="2482"
     inkscape:window-height="1411"
     id="namedview4534"
     showgrid="false"
     inkscape:zoom="1.178"
     inkscape:cx="500"
     inkscape:cy="500"
     inkscape:window-x="1911"
     inkscape:window-y="-9"
     inkscape:window-maximized="1"
     inkscape:current-layer="Layer_1" />
  <defs
     id="defs4477">
    <style
       id="style4475">
      .cls-1 {
        fill: #26bde2;
      }

      .cls-2 {
        fill: #fff;
      }
    </style>
  </defs>
  <title
     id="title4479">Artboard 1</title>
  <rect
     class="cls-1"
     width="1000"
     height="1000"
     id="rect4481" />
  <path
     class="cls-2"
     d="M151.31,288.09c36,0,49.95-19.64,49.95-50.87V207.48c0-33-13.08-49.66-37.48-49.66-14.27,0-22.89,6.56-27.95,16.37h-.29V130.77c0-12.21,3.87-20.82,16.06-20.82s15.76,7.14,15.76,19.63V143h30.93V132.25c0-29.74-9.82-50.55-47.29-50.55-35.68,0-49.07,22.89-49.07,54.41v98.14c0,31.23,13.68,53.84,49.38,53.84m-15.77-84.77c.59-11.29,5.35-18.43,16.06-18.43,11.59,0,16.05,7.14,16.05,20.23v35.09c0,12.78-4.74,20.22-16.34,20.22-11.32,0-15.77-7.73-15.77-20.22Z"
     id="path4483" />
  <path
     class="cls-2"
     d="M684.65,404.36a4.38,4.38,0,0,0-3.28-1.43H318.57a4.09,4.09,0,0,0-4.17,4.86l61,368.63a4.26,4.26,0,0,0,4.18,3.55h74.81l5.12,60-31.48,0,73.25,73.24,73.42-73.41-31.47,0L548.29,780h76.13a4.18,4.18,0,0,0,4.16-3.62l57-368.56A4.36,4.36,0,0,0,684.65,404.36ZM544.43,699.47a58.2,58.2,0,0,1-43.29,15.1,58.23,58.23,0,0,1-43.34-15.1c-27.18-27.15-17.48-60.93-8-78.39,5.84-10.93,47.6-73.64,51.2-79v-.42l.16.2.14-.2v.42c3.5,5.34,45.33,68,51.17,79C561.92,638.54,571.59,672.32,544.43,699.47ZM659.52,481.92c-9.83-4.33-22.3-2.77-34.26,2.07-45,18.25-75.66,24.81-123,10-29.82-9.34-57.72-28.88-90.69-17-21.89,7.87-42.28,15.38-67,15.19l-14.29-73.26H669.79Z"
     id="path4531" />
  <text
     xml:space="preserve"
     style="font-style:normal;font-weight:normal;font-size:40px;line-height:1.25;font-family:sans-serif;letter-spacing:0px;word-spacing:0px;fill:#000000;fill-opacity:1;stroke:none"
     x="284.33334"
     y="153.79167"
     id="text3853"><tspan
       sodipodi:role="line"
       id="tspan3851"
       x="284.33334"
       y="153.79167"
       style="font-style:normal;font-variant:normal;font-weight:normal;font-stretch:normal;font-size:85.33333588px;font-family:'Microsoft Sans Serif';-inkscape-font-specification:'Microsoft Sans Serif';fill:#ffffff">清洁饮用</tspan><tspan
       sodipodi:role="line"
       x="284.33334"
       y="260.45834"
       style="font-style:normal;font-variant:normal;font-weight:normal;font-stretch:normal;font-size:85.33333588px;font-family:'Microsoft Sans Serif';-inkscape-font-specification:'Microsoft Sans Serif';fill:#ffffff"
       id="tspan4546">和环境卫生</tspan></text>
</svg>
