<?xml version="1.0" encoding="UTF-8" standalone="no"?>
<svg
   xmlns:dc="http://purl.org/dc/elements/1.1/"
   xmlns:cc="http://creativecommons.org/ns#"
   xmlns:rdf="http://www.w3.org/1999/02/22-rdf-syntax-ns#"
   xmlns:svg="http://www.w3.org/2000/svg"
   xmlns="http://www.w3.org/2000/svg"
   xmlns:sodipodi="http://sodipodi.sourceforge.net/DTD/sodipodi-0.dtd"
   xmlns:inkscape="http://www.inkscape.org/namespaces/inkscape"
   id="Layer_1"
   data-name="Layer 1"
   viewBox="0 0 1000 1000"
   version="1.1"
   sodipodi:docname="TheGlobalGoals_Icons_Color_Goal_10.svg"
   inkscape:version="0.92.3 (2405546, 2018-03-11)">
  <metadata
     id="metadata73">
    <rdf:RDF>
      <cc:Work
         rdf:about="">
        <dc:format>image/svg+xml</dc:format>
        <dc:type
           rdf:resource="http://purl.org/dc/dcmitype/StillImage" />
      </cc:Work>
    </rdf:RDF>
  </metadata>
  <sodipodi:namedview
     pagecolor="#ffffff"
     bordercolor="#666666"
     borderopacity="1"
     objecttolerance="10"
     gridtolerance="10"
     guidetolerance="10"
     inkscape:pageopacity="0"
     inkscape:pageshadow="2"
     inkscape:window-width="2482"
     inkscape:window-height="1411"
     id="namedview71"
     showgrid="false"
     inkscape:zoom="1.178"
     inkscape:cx="500"
     inkscape:cy="500"
     inkscape:window-x="1911"
     inkscape:window-y="-9"
     inkscape:window-maximized="1"
     inkscape:current-layer="Layer_1" />
  <defs
     id="defs4">
    <style
       id="style2">
      .cls-1 {
        fill: #dd1367;
      }

      .cls-2 {
        fill: #fff;
      }
    </style>
  </defs>
  <title
     id="title6">Artboard 1</title>
  <rect
     class="cls-1"
     width="1000"
     height="1000"
     id="rect8" />
  <polygon
     class="cls-2"
     points="96.48 131.03 96.48 285.52 130.41 285.52 130.41 83.69 103.32 83.69 72.07 120.31 72.07 155.74 72.36 155.74 96.17 131.03 96.48 131.03"
     id="polygon48" />
  <path
     class="cls-2"
     d="M254.25,233.43V135.78c0-31.55-15.77-54.47-50.31-54.47-34.23,0-50,22.92-50,54.47v97.65c0,31.25,15.79,54.47,50,54.47,34.54,0,50.31-23.22,50.31-54.47m-66.39,5.36V130.43c0-12.21,4.46-20.84,16.08-20.84,11.91,0,16.37,8.63,16.37,20.84V238.79c0,12.21-4.46,20.83-16.37,20.83-11.62,0-16.08-8.62-16.08-20.83"
     id="path50" />
  <g
     id="g68">
    <g
       id="g56">
      <path
         class="cls-2"
         d="M592.3,657.55H407.68a2.14,2.14,0,0,0-2,2.24v55.49a2.14,2.14,0,0,0,2,2.25H592.3a2.14,2.14,0,0,0,2-2.25V659.79a2.14,2.14,0,0,0-2-2.24"
         id="path52" />
      <path
         class="cls-2"
         d="M592.3,539.48H407.68a2.14,2.14,0,0,0-2,2.24v55.49a2.13,2.13,0,0,0,2,2.25H592.3a2.13,2.13,0,0,0,2-2.25V541.72a2.14,2.14,0,0,0-2-2.24"
         id="path54" />
    </g>
    <g
       id="g66">
      <path
         class="cls-2"
         d="M589.7,455.61,501.08,367a1.54,1.54,0,0,0-2.16,0L410.3,455.61a1.53,1.53,0,0,0,1.08,2.61H588.62A1.53,1.53,0,0,0,589.7,455.61Z"
         id="path58" />
      <path
         class="cls-2"
         d="M672.9,718.21l88.62-88.62a1.53,1.53,0,0,0,0-2.17L672.9,538.8a1.53,1.53,0,0,0-2.61,1.08V717.13A1.53,1.53,0,0,0,672.9,718.21Z"
         id="path60" />
      <path
         class="cls-2"
         d="M410.3,801.41,498.92,890a1.52,1.52,0,0,0,2.16,0l88.62-88.62a1.53,1.53,0,0,0-1.08-2.62H411.38A1.53,1.53,0,0,0,410.3,801.41Z"
         id="path62" />
      <path
         class="cls-2"
         d="M327.1,538.8l-88.62,88.62a1.53,1.53,0,0,0,0,2.17l88.62,88.62a1.53,1.53,0,0,0,2.61-1.08V539.88A1.53,1.53,0,0,0,327.1,538.8Z"
         id="path64" />
    </g>
  </g>
  <text
     xml:space="preserve"
     style="font-style:normal;font-weight:normal;font-size:40px;line-height:1.25;font-family:sans-serif;letter-spacing:0px;word-spacing:0px;fill:#000000;fill-opacity:1;stroke:none"
     x="314"
     y="208.45833"
     id="text3853"><tspan
       sodipodi:role="line"
       x="314"
       y="208.45833"
       style="font-style:normal;font-variant:normal;font-weight:normal;font-stretch:normal;font-size:85.33333588px;font-family:'Microsoft Sans Serif';-inkscape-font-specification:'Microsoft Sans Serif';fill:#ffffff"
       id="tspan66">减少不平等</tspan></text>
</svg>
