<?xml version="1.0" encoding="UTF-8" standalone="no"?>
<svg
   xmlns:dc="http://purl.org/dc/elements/1.1/"
   xmlns:cc="http://creativecommons.org/ns#"
   xmlns:rdf="http://www.w3.org/1999/02/22-rdf-syntax-ns#"
   xmlns:svg="http://www.w3.org/2000/svg"
   xmlns="http://www.w3.org/2000/svg"
   xmlns:sodipodi="http://sodipodi.sourceforge.net/DTD/sodipodi-0.dtd"
   xmlns:inkscape="http://www.inkscape.org/namespaces/inkscape"
   id="Layer_1"
   data-name="Layer 1"
   viewBox="0 0 1000 1000"
   version="1.1"
   sodipodi:docname="TheGlobalGoals_Icons_Color_Goal_16.svg"
   inkscape:version="0.92.3 (2405546, 2018-03-11)">
  <metadata
     id="metadata111">
    <rdf:RDF>
      <cc:Work
         rdf:about="">
        <dc:format>image/svg+xml</dc:format>
        <dc:type
           rdf:resource="http://purl.org/dc/dcmitype/StillImage" />
      </cc:Work>
    </rdf:RDF>
  </metadata>
  <sodipodi:namedview
     pagecolor="#ffffff"
     bordercolor="#666666"
     borderopacity="1"
     objecttolerance="10"
     gridtolerance="10"
     guidetolerance="10"
     inkscape:pageopacity="0"
     inkscape:pageshadow="2"
     inkscape:window-width="2482"
     inkscape:window-height="1411"
     id="namedview109"
     showgrid="false"
     inkscape:zoom="1.178"
     inkscape:cx="500"
     inkscape:cy="432.08829"
     inkscape:window-x="1911"
     inkscape:window-y="-9"
     inkscape:window-maximized="1"
     inkscape:current-layer="Layer_1" />
  <defs
     id="defs4">
    <style
       id="style2">
      .cls-1 {
        fill: #00689d;
      }

      .cls-2 {
        fill: #fff;
      }
    </style>
  </defs>
  <title
     id="title6">Artboard 1</title>
  <rect
     class="cls-1"
     x="0.3"
     y="0.15"
     width="999.81"
     height="999.85"
     id="rect8" />
  <polygon
     class="cls-2"
     points="77.22 120.59 77.22 155.97 77.53 155.97 101.31 131.29 101.61 131.29 101.61 285.6 135.51 285.6 135.51 84.01 108.46 84.01 77.22 120.59"
     id="polygon10" />
  <path
     class="cls-2"
     d="M254.15,237.15V207.41c0-33-13.08-49.66-37.46-49.66-14.28,0-22.9,6.54-27.95,16.36h-.29V130.7c0-12.2,3.85-20.82,16.05-20.82s15.76,7.14,15.76,19.62v13.4h30.92V132.18c0-29.73-9.81-50.54-47.28-50.54-35.68,0-49.06,22.9-49.06,54.42v98.11c0,31.22,13.69,53.82,49.36,53.82,36,0,50-19.62,50-50.84m-33.6,3c0,12.78-4.76,20.21-16.35,20.21-11.3,0-15.75-7.72-15.75-20.21V203.25c.58-11.3,5.34-18.44,16.05-18.44,11.58,0,16.05,7.14,16.05,20.23Z"
     id="path12" />
  <g
     id="g34">
    <path
       class="cls-2"
       d="M646.14,491s-8.41,11.17-6,22.06,14.88,17.36,14.88,17.36,8.41-11.17,6-22.05S646.14,491,646.14,491"
       id="path14" />
    <path
       class="cls-2"
       d="M632.43,554.84s8.41-11.18,6-22.06-14.87-17.36-14.87-17.36-8.42,11.17-6,22.06,14.88,17.36,14.88,17.36"
       id="path16" />
    <path
       class="cls-2"
       d="M667,542.88s8.88,9,19,8.06,17.61-11.31,17.61-11.31-8.87-9-19-8.07S667,542.88,667,542.88"
       id="path18" />
    <path
       class="cls-2"
       d="M681.56,495c-8.23,8.35-7.07,23.13-7.07,23.13s14.51,1.26,22.76-7.08,7.07-23.13,7.07-23.13-14.52-1.26-22.76,7.08"
       id="path20" />
    <path
       class="cls-2"
       d="M663.4,576.09c10.08,1.2,19.56-7.46,19.56-7.46S676.09,558,666,556.85s-19.57,7.47-19.57,7.47,6.87,10.58,16.95,11.77"
       id="path22" />
    <path
       class="cls-2"
       d="M672.4,751.23H597.05a10.66,10.66,0,1,0,0,21.32H672.4a10.66,10.66,0,0,0,0-21.32"
       id="path24" />
    <path
       class="cls-2"
       d="M672.4,868.74H597.05a10.66,10.66,0,1,0,0,21.32H672.4a10.66,10.66,0,0,0,0-21.32"
       id="path26" />
    <path
       class="cls-2"
       d="M333.51,725.35a49.66,49.66,0,0,0-5.23-1.34s1.93.6,5.23,1.34"
       id="path28" />
    <path
       class="cls-2"
       d="M669.63,780H599.8a6.07,6.07,0,0,0-6.07,6.06v21.15l-45.58,5-66.59-1.52V770a183,183,0,0,0,26.49-5.38c64.11-18.08,78.09-71.08,76.69-107.75-1.39-37.35,10.56-51.85,27.73-58.3a77.47,77.47,0,0,1,14.23-3.77c.19,9.17,2,19.84,6.15,32.54,1.53-.08,3-.21,4.55-.37-4.33-13-6.18-23.69-6.28-32.81a79.89,79.89,0,0,1,15.2-.46,96.54,96.54,0,0,1-14.47-10.3c2.88-17.68,13.42-28.54,24.27-39.65,6-6.11,12.13-12.42,17-19.94l-3.78-2.44c-4.6,7.14-10.63,13.29-16.44,19.24-10.58,10.83-21.27,21.89-24.89,39.45A145.4,145.4,0,0,1,617,569c-15.81-17.72-36.16-4.71-65.17,22.31s-65.54,27.93-101.2-8.55c-47-48.16-88.08-47.88-116.22-45.15,19.25,8.2,26,26.19,35.73,71.91,10.21,48,36,69.68,71.19,72.67-19.59,6.93-20.56,18-46.81,36.12-20.51,14.14-49.35,9.67-61,7,21.46,6.7,46.89,29.21,69.64,37a168.17,168.17,0,0,0,41.51,8.51v38.94l-119.3-2.72v27.16l222.79-5.1,45.58,5v21.13a6.09,6.09,0,0,0,6.07,6.08h69.83a6.1,6.1,0,0,0,6.08-6.08V786.06A6.08,6.08,0,0,0,669.63,780Zm-214-8.52c5,.08,9.95-.07,14.94-.41v39.37l-14.94-.34Z"
       id="path30" />
    <path
       class="cls-2"
       d="M318.84,829.8c0,5.73-4,10.37-8.92,10.37h-5.37c-4.92,0-8.93-4.64-8.93-10.37V811c0-5.73,4-10.37,8.93-10.37h5.37c4.92,0,8.92,4.64,8.92,10.37Z"
       id="path32" />
  </g>
  <text
     xml:space="preserve"
     style="font-style:normal;font-weight:normal;font-size:40px;line-height:1.25;font-family:sans-serif;letter-spacing:0px;word-spacing:0px;fill:#000000;fill-opacity:1;stroke:none"
     x="314"
     y="153.70833"
     id="text3853"><tspan
       sodipodi:role="line"
       x="314"
       y="153.70833"
       style="font-style:normal;font-variant:normal;font-weight:normal;font-stretch:normal;font-size:85.33333588px;font-family:'Microsoft Sans Serif';-inkscape-font-specification:'Microsoft Sans Serif';fill:#ffffff"
       id="tspan67">和平，公正和</tspan><tspan
       sodipodi:role="line"
       x="314"
       y="260.375"
       style="font-style:normal;font-variant:normal;font-weight:normal;font-stretch:normal;font-size:85.33333588px;font-family:'Microsoft Sans Serif';-inkscape-font-specification:'Microsoft Sans Serif';fill:#ffffff"
       id="tspan125">包容的社会</tspan></text>
</svg>
