<?xml version="1.0" encoding="UTF-8" standalone="no"?>
<svg
   xmlns:dc="http://purl.org/dc/elements/1.1/"
   xmlns:cc="http://creativecommons.org/ns#"
   xmlns:rdf="http://www.w3.org/1999/02/22-rdf-syntax-ns#"
   xmlns:svg="http://www.w3.org/2000/svg"
   xmlns="http://www.w3.org/2000/svg"
   xmlns:sodipodi="http://sodipodi.sourceforge.net/DTD/sodipodi-0.dtd"
   xmlns:inkscape="http://www.inkscape.org/namespaces/inkscape"
   id="Layer_1"
   data-name="Layer 1"
   viewBox="0 0 1000 1000"
   version="1.1"
   sodipodi:docname="TheGlobalGoals_Icons_Color_Goal_7.svg"
   inkscape:version="0.92.3 (2405546, 2018-03-11)">
  <metadata
     id="metadata54">
    <rdf:RDF>
      <cc:Work
         rdf:about="">
        <dc:format>image/svg+xml</dc:format>
        <dc:type
           rdf:resource="http://purl.org/dc/dcmitype/StillImage" />
      </cc:Work>
    </rdf:RDF>
  </metadata>
  <sodipodi:namedview
     pagecolor="#ffffff"
     bordercolor="#666666"
     borderopacity="1"
     objecttolerance="10"
     gridtolerance="10"
     guidetolerance="10"
     inkscape:pageopacity="0"
     inkscape:pageshadow="2"
     inkscape:window-width="2482"
     inkscape:window-height="1411"
     id="namedview52"
     showgrid="false"
     inkscape:zoom="1.178"
     inkscape:cx="500"
     inkscape:cy="500"
     inkscape:window-x="1911"
     inkscape:window-y="-9"
     inkscape:window-maximized="1"
     inkscape:current-layer="Layer_1" />
  <defs
     id="defs4">
    <style
       id="style2">
      .cls-1 {
        fill: #fcc30b;
      }

      .cls-2 {
        fill: #fff;
      }
    </style>
  </defs>
  <title
     id="title6">Artboard 1</title>
  <rect
     id="_Path_"
     data-name="&lt;Path&gt;"
     class="cls-1"
     y="-0.02"
     width="1000"
     height="1000.03" />
  <polygon
     id="_Path_2"
     data-name="&lt;Path&gt;"
     class="cls-2"
     points="102.57 111.45 154.92 111.45 109.7 285.42 143.32 285.42 187.63 115.02 187.63 83.79 102.57 83.79 102.57 111.45" />
  <g
     id="g23">
    <path
       id="_Compound_Path_"
       data-name="&lt;Compound Path&gt;"
       class="cls-2"
       d="M500,484.49A146.58,146.58,0,1,0,646.52,631.06,146.56,146.56,0,0,0,500,484.49m-10.85,57.9c0-4.87,4.89-10.25,10.91-10.25s10.85,5.38,10.85,10.25v50.33c0,4.85-4.85,10.17-10.85,10.17s-10.91-5.32-10.91-10.17ZM500,706.16a76.24,76.24,0,0,1-22.65-149v28.39a49.89,49.89,0,1,0,45.18-.07V557.09A76.24,76.24,0,0,1,500,706.16" />
    <path
       id="_Path_3"
       data-name="&lt;Path&gt;"
       class="cls-2"
       d="M331.73,629.78c0-6.65-5.89-12-11.26-12H256.28c-5.41,0-11.35,5.38-11.35,12s5.94,12.07,11.35,12.07h64.19c5.37,0,11.26-5.41,11.26-12.07" />
    <path
       id="_Path_4"
       data-name="&lt;Path&gt;"
       class="cls-2"
       d="M755.07,629.78c0-6.65-5.89-12-11.26-12H679.63c-5.41,0-11.35,5.38-11.35,12s5.94,12.07,11.35,12.07h64.18c5.37,0,11.26-5.41,11.26-12.07" />
    <path
       id="_Path_5"
       data-name="&lt;Path&gt;"
       class="cls-2"
       d="M500,461.53c6.63,0,12-5.89,12-11.26V386.08c0-5.41-5.39-11.35-12-11.35s-12.09,5.94-12.09,11.35v64.19c0,5.37,5.43,11.26,12.09,11.26" />
    <path
       id="_Path_6"
       data-name="&lt;Path&gt;"
       class="cls-2"
       d="M500,884.86c6.63,0,12-5.89,12-11.26V809.42c0-5.4-5.39-11.35-12-11.35s-12.09,5.95-12.09,11.35V873.6c0,5.37,5.43,11.26,12.09,11.26" />
    <path
       id="_Path_7"
       data-name="&lt;Path&gt;"
       class="cls-2"
       d="M354,546.19c3.31-5.77.88-13.36-3.8-16l-55.7-31.88c-4.7-2.69-12.52-1-15.83,4.8s-.83,13.43,3.86,16.12l55.71,31.88c4.66,2.67,12.46.9,15.76-4.89" />
    <path
       id="_Path_8"
       data-name="&lt;Path&gt;"
       class="cls-2"
       d="M721.39,756.47c3.29-5.75.86-13.36-3.8-16l-55.7-31.88c-4.7-2.68-12.53-1-15.83,4.81s-.84,13.43,3.85,16.11l55.71,31.88c4.66,2.67,12.46.9,15.77-4.89" />
    <path
       id="_Path_9"
       data-name="&lt;Path&gt;"
       class="cls-2"
       d="M583.61,483.77c5.76,3.29,13.35.86,16-3.8l31.87-55.71c2.7-4.7,1-12.53-4.79-15.83s-13.44-.84-16.12,3.86L578.72,468c-2.67,4.67-.9,12.47,4.89,15.78" />
    <path
       id="_Path_10"
       data-name="&lt;Path&gt;"
       class="cls-2"
       d="M373.33,851.19c5.76,3.29,13.35.86,16-3.81l31.87-55.7c2.69-4.69,1-12.53-4.8-15.83S403,775,400.32,779.71l-31.88,55.7c-2.67,4.66-.9,12.47,4.89,15.78" />
    <path
       id="_Path_11"
       data-name="&lt;Path&gt;"
       class="cls-2"
       d="M416.14,483.91c5.75-3.31,7.49-11.1,4.81-15.76l-32-55.64c-2.7-4.69-10.32-7.15-16.08-3.84s-7.51,11.17-4.8,15.86l32,55.63c2.69,4.66,10.3,7.07,16.09,3.75" />
    <path
       id="_Path_12"
       data-name="&lt;Path&gt;"
       class="cls-2"
       d="M627.17,850.9c5.76-3.31,7.49-11.1,4.82-15.75l-32-55.64c-2.7-4.7-10.32-7.16-16.09-3.85s-7.51,11.17-4.79,15.87l32,55.63c2.68,4.66,10.3,7.06,16.08,3.74" />
    <path
       id="_Path_13"
       data-name="&lt;Path&gt;"
       class="cls-2"
       d="M645.89,545.93c3.31,5.76,11.09,7.49,15.75,4.82l55.63-32c4.7-2.7,7.18-10.33,3.86-16.09s-11.16-7.5-15.86-4.8l-55.63,32c-4.67,2.68-7.07,10.31-3.75,16.08" />
    <path
       id="_Path_14"
       data-name="&lt;Path&gt;"
       class="cls-2"
       d="M278.9,757c3.31,5.76,11.09,7.49,15.76,4.81l55.63-32c4.69-2.7,7.17-10.33,3.84-16.09s-11.16-7.5-15.85-4.81l-55.63,32c-4.67,2.67-7.07,10.31-3.75,16.08" />
  </g>
  <text
     xml:space="preserve"
     style="font-style:normal;font-weight:normal;font-size:40px;line-height:1.25;font-family:sans-serif;letter-spacing:0px;word-spacing:0px;fill:#000000;fill-opacity:1;stroke:none"
     x="283.91653"
     y="153.9584"
     id="text3853"><tspan
       sodipodi:role="line"
       x="283.91653"
       y="153.9584"
       style="font-style:normal;font-variant:normal;font-weight:normal;font-stretch:normal;font-size:85.33333588px;font-family:'Microsoft Sans Serif';-inkscape-font-specification:'Microsoft Sans Serif';fill:#ffffff"
       id="tspan4546">可负担的</tspan><tspan
       sodipodi:role="line"
       x="283.91653"
       y="260.62506"
       style="font-style:normal;font-variant:normal;font-weight:normal;font-stretch:normal;font-size:85.33333588px;font-family:'Microsoft Sans Serif';-inkscape-font-specification:'Microsoft Sans Serif';fill:#ffffff"
       id="tspan91">清洁能源</tspan></text>
</svg>
