<?xml version="1.0" encoding="UTF-8" standalone="no"?>
<svg
   xmlns:dc="http://purl.org/dc/elements/1.1/"
   xmlns:cc="http://creativecommons.org/ns#"
   xmlns:rdf="http://www.w3.org/1999/02/22-rdf-syntax-ns#"
   xmlns:svg="http://www.w3.org/2000/svg"
   xmlns="http://www.w3.org/2000/svg"
   xmlns:sodipodi="http://sodipodi.sourceforge.net/DTD/sodipodi-0.dtd"
   xmlns:inkscape="http://www.inkscape.org/namespaces/inkscape"
   id="Layer_1"
   data-name="Layer 1"
   viewBox="0 0 1000 1000"
   version="1.1"
   sodipodi:docname="TheGlobalGoals_Icons_Color_Goal_12.svg"
   inkscape:version="0.92.3 (2405546, 2018-03-11)">
  <metadata
     id="metadata53">
    <rdf:RDF>
      <cc:Work
         rdf:about="">
        <dc:format>image/svg+xml</dc:format>
        <dc:type
           rdf:resource="http://purl.org/dc/dcmitype/StillImage" />
      </cc:Work>
    </rdf:RDF>
  </metadata>
  <sodipodi:namedview
     pagecolor="#ffffff"
     bordercolor="#666666"
     borderopacity="1"
     objecttolerance="10"
     gridtolerance="10"
     guidetolerance="10"
     inkscape:pageopacity="0"
     inkscape:pageshadow="2"
     inkscape:window-width="2482"
     inkscape:window-height="1411"
     id="namedview51"
     showgrid="false"
     inkscape:zoom="1.178"
     inkscape:cx="500"
     inkscape:cy="500"
     inkscape:window-x="1911"
     inkscape:window-y="-9"
     inkscape:window-maximized="1"
     inkscape:current-layer="Layer_1" />
  <defs
     id="defs4">
    <style
       id="style2">
      .cls-1 {
        fill: #bf8b2e;
      }

      .cls-2 {
        fill: #fff;
      }
    </style>
  </defs>
  <title
     id="title6">Artboard 1</title>
  <rect
     id="_Path_"
     data-name="&lt;Path&gt;"
     class="cls-1"
     y="-0.03"
     width="1000"
     height="1000.06" />
  <polygon
     id="_Path_2"
     data-name="&lt;Path&gt;"
     class="cls-2"
     points="99.82 131.38 100.13 131.38 100.13 285.73 134.03 285.73 134.03 84.09 106.94 84.09 75.73 120.68 75.73 156.06 76.02 156.06 99.82 131.38" />
  <path
     id="_Path_3"
     data-name="&lt;Path&gt;"
     class="cls-2"
     d="M154.24,125.74v24.37h30.92V124.83c0-12.18,6-15.75,13.09-15.75,6.55,0,12.19,2.67,12.19,15.17v16.64c0,16.67-1.48,23.2-12.5,34.8l-19,20.23c-18.43,19.63-25.29,32.71-25.29,52.64v37.18h88V258.07H186.05v-9.51c0-15.77,5.65-21.71,14.27-30.93L222,194.73c17.55-18.73,21.42-30.64,21.42-50.86V124.25c0-28.86-14-42.53-44.32-42.53-29.74,0-44.9,15.76-44.9,44" />
  <path
     id="_Path_4"
     data-name="&lt;Path&gt;"
     class="cls-2"
     d="M778.55,535.68C737.77,503.47,688.87,500,669.74,500c-10.09,0-19.43.9-26.27,2.53l-2.68.62c-25.83,6.1-69.06,16.31-119.39,78.77l-1.48,1.83a6.54,6.54,0,0,0-1.26,3.78,6.69,6.69,0,0,0,.89,3.31l1.14,1.87q12.46,20.85,20.7,36.21a6.65,6.65,0,0,0,10.76,1.51c.35-.46.71-.95,1-1.32C596.57,569,630.63,561,653.17,555.67L656,555a66,66,0,0,1,13.8-1.17c10.48,0,46.91,1.74,75.33,24.18,25.29,20,38.11,51.84,38.11,94.75,0,71.92-34.79,100-64,110.84a101.61,101.61,0,0,1-35.68,6.28A126.64,126.64,0,0,1,630,777.69l-2.09-1c-25.11-10.9-62.6-33.63-98.05-104.81-72.66-146-133.7-159.78-174.12-168.93l-2.12-.47c-3.1-.71-11.84-2.34-26-2.34-23.4,0-68.42,4.6-107,35.4-26.34,21-57.76,61.83-57.76,137,0,45.77,9.43,76,33.6,107.79,4.54,6.2,46.65,60.58,127.5,60.58a196.78,196.78,0,0,0,36.92-3.62c14.76-2.82,37.54-10.12,63-28.78l21.25,19.18a6.36,6.36,0,0,0,8.63-.4,5.6,5.6,0,0,0,1.53-4l16.44-101.28,0-1.18a6,6,0,0,0-2-4.42,5.92,5.92,0,0,0-4.26-1.57h0L366.81,742l-1.88.31a5.74,5.74,0,0,0-3.13,1.81,6.1,6.1,0,0,0,.42,8.67l20.43,18.48c-10.74,6.59-21.48,11-31.92,13a139.84,139.84,0,0,1-26.16,2.56c-55.87,0-83.36-36.67-84.49-38.22l-.55-.76c-17-22.33-22.74-41.34-22.74-75.34,0-43.06,12.6-75,37.45-94.8,27.65-22.06,63.23-23.78,73.49-23.78a69.38,69.38,0,0,1,14,1.17l2.18.49c32.26,7.31,76.44,17.31,137.7,140.35,32.35,65,72.92,107.44,123.91,129.84,5.93,3,37.56,18.11,78.1,18.11a155.58,155.58,0,0,0,54.5-9.67c29.78-11.11,99.08-49.1,99.08-161.42C837.17,597.72,805.29,556.8,778.55,535.68Z" />
  <text
     xml:space="preserve"
     style="font-style:normal;font-weight:normal;font-size:40px;line-height:1.25;font-family:sans-serif;letter-spacing:0px;word-spacing:0px;fill:#000000;fill-opacity:1;stroke:none"
     x="314"
     y="153.70833"
     id="text3853"><tspan
       sodipodi:role="line"
       x="314"
       y="153.70833"
       style="font-style:normal;font-variant:normal;font-weight:normal;font-stretch:normal;font-size:85.33333588px;font-family:'Microsoft Sans Serif';-inkscape-font-specification:'Microsoft Sans Serif';fill:#ffffff"
       id="tspan66">负责任的消费</tspan><tspan
       sodipodi:role="line"
       x="314"
       y="260.375"
       style="font-style:normal;font-variant:normal;font-weight:normal;font-stretch:normal;font-size:85.33333588px;font-family:'Microsoft Sans Serif';-inkscape-font-specification:'Microsoft Sans Serif';fill:#ffffff"
       id="tspan67">和生产</tspan></text>
</svg>
