<?xml version="1.0" encoding="UTF-8" standalone="no"?>
<svg
   xmlns:dc="http://purl.org/dc/elements/1.1/"
   xmlns:cc="http://creativecommons.org/ns#"
   xmlns:rdf="http://www.w3.org/1999/02/22-rdf-syntax-ns#"
   xmlns:svg="http://www.w3.org/2000/svg"
   xmlns="http://www.w3.org/2000/svg"
   xmlns:sodipodi="http://sodipodi.sourceforge.net/DTD/sodipodi-0.dtd"
   xmlns:inkscape="http://www.inkscape.org/namespaces/inkscape"
   id="Layer_1"
   data-name="Layer 1"
   viewBox="0 0 1000 1000"
   version="1.1"
   sodipodi:docname="TheGlobalGoals_Icons_Color_Goal_8.svg"
   inkscape:version="0.92.3 (2405546, 2018-03-11)">
  <metadata
     id="metadata49">
    <rdf:RDF>
      <cc:Work
         rdf:about="">
        <dc:format>image/svg+xml</dc:format>
        <dc:type
           rdf:resource="http://purl.org/dc/dcmitype/StillImage" />
      </cc:Work>
    </rdf:RDF>
  </metadata>
  <sodipodi:namedview
     pagecolor="#ffffff"
     bordercolor="#666666"
     borderopacity="1"
     objecttolerance="10"
     gridtolerance="10"
     guidetolerance="10"
     inkscape:pageopacity="0"
     inkscape:pageshadow="2"
     inkscape:window-width="2482"
     inkscape:window-height="1411"
     id="namedview47"
     showgrid="false"
     inkscape:zoom="1.178"
     inkscape:cx="500"
     inkscape:cy="500"
     inkscape:window-x="1911"
     inkscape:window-y="-9"
     inkscape:window-maximized="1"
     inkscape:current-layer="_Group_2" />
  <defs
     id="defs4">
    <style
       id="style2">
      .cls-1 {
        fill: #a21942;
      }

      .cls-2 {
        fill: #fff;
      }
    </style>
  </defs>
  <title
     id="title6">Artboard 1</title>
  <g
     id="_Group_"
     data-name="&lt;Group&gt;">
    <rect
       id="_Path_"
       data-name="&lt;Path&gt;"
       class="cls-1"
       y="-0.02"
       width="1000"
       height="1000.03" />
    <path
       id="_Compound_Path_"
       data-name="&lt;Compound Path&gt;"
       class="cls-2"
       d="M194.3,236.09v-22c0-19.32-6.83-33.3-22.6-40.44,13.37-6.53,19.63-18.43,19.63-35.08v-8.34c0-31.52-16.35-48.47-47.58-48.47-30.92,0-47,17-47,48.47v8.34c0,16.36,6,28.55,19,35.08-15.76,7.14-22.31,21.12-22.31,40.44v22c0,30.62,14.58,52,50.27,52,36,0,50.55-21.42,50.55-52m-65.73-108c0-12.21,4.18-19.34,15.18-19.34,11.29,0,15.46,7.13,15.46,19.34v13.67c0,12.19-4.17,19.35-15.46,19.35-11,0-15.18-7.16-15.18-19.35ZM160.4,239.65c0,12.2-4.46,20.82-16.65,20.82-11.9,0-16.36-8.62-16.36-20.82V206.94c0-12.19,4.46-20.82,16.36-20.82,12.19,0,16.65,8.63,16.65,20.82Z" />
    <g
       id="g14">
      <path
         id="_Path_2"
         data-name="&lt;Path&gt;"
         class="cls-2"
         d="M694.16,492,592.52,588.67c-3.83,3.81-5.8,6.62-5.8,14.52v271a5.8,5.8,0,0,0,5.8,5.78h105a5.79,5.79,0,0,0,5.79-5.78V494.42c0-3.2-2.5-9-9.14-2.44" />
      <path
         id="_Path_3"
         data-name="&lt;Path&gt;"
         class="cls-2"
         d="M401.34,618,299.69,714.63c-3.82,3.82-5.8,6.62-5.8,14.51v145a5.8,5.8,0,0,0,5.8,5.77h105a5.79,5.79,0,0,0,5.79-5.77V620.38c0-3.21-2.53-9.06-9.14-2.43" />
      <path
         id="_Path_4"
         data-name="&lt;Path&gt;"
         class="cls-2"
         d="M740.36,374.72a2.84,2.84,0,0,0-.86-2.2,3.06,3.06,0,0,0-1.88-.83l-.56,0-.83,0L658.4,389.33l-1.41.15a3.14,3.14,0,0,0-1.52.79,3,3,0,0,0,0,4.19l.88.88,17.78,17.77L497.77,589.47,416.32,508a2.32,2.32,0,0,0-3.32,0l-22.1,22.11a0,0,0,0,0,0,0L260.31,660.69a2.38,2.38,0,0,0,0,3.32l22.13,22.12a2.32,2.32,0,0,0,3.29,0l129-128.92,59.1,59.12a2.31,2.31,0,0,0,.19.28l22.11,22.08a2.31,2.31,0,0,0,3.31,0L699.55,438.54l18.66,18.65a2.91,2.91,0,0,0,4.15,0,2.8,2.8,0,0,0,.85-1.92l0-.24,17.09-79.45Z" />
      <path
         id="_Path_5"
         data-name="&lt;Path&gt;"
         class="cls-2"
         d="M548.33,634.92,499.15,684.5a2.35,2.35,0,0,1-3.17-.12L451.43,639c-8.16-8.12-9.92-1.53-9.92,1.66V874.17a5.77,5.77,0,0,0,5.76,5.78h105a5.79,5.79,0,0,0,5.77-5.78V636.75c0-3.19-2.51-9.06-9.73-1.83" />
    </g>
    <g
       id="_Group_2"
       data-name="&lt;Group&gt;">
      <text
         xml:space="preserve"
         style="font-style:normal;font-weight:normal;font-size:40px;line-height:1.25;font-family:sans-serif;letter-spacing:0px;word-spacing:0px;fill:#000000;fill-opacity:1;stroke:none"
         x="284"
         y="153.70833"
         id="text3853"><tspan
           sodipodi:role="line"
           x="284"
           y="153.70833"
           style="font-style:normal;font-variant:normal;font-weight:normal;font-stretch:normal;font-size:85.33333588px;font-family:'Microsoft Sans Serif';-inkscape-font-specification:'Microsoft Sans Serif';fill:#ffffff"
           id="tspan4546">体面工作和</tspan><tspan
           sodipodi:role="line"
           x="284"
           y="260.375"
           style="font-style:normal;font-variant:normal;font-weight:normal;font-stretch:normal;font-size:85.33333588px;font-family:'Microsoft Sans Serif';-inkscape-font-specification:'Microsoft Sans Serif';fill:#ffffff"
           id="tspan73">经济增长</tspan></text>
    </g>
  </g>
</svg>
