<?xml version="1.0" encoding="UTF-8" standalone="no"?>
<svg
   xmlns:dc="http://purl.org/dc/elements/1.1/"
   xmlns:cc="http://creativecommons.org/ns#"
   xmlns:rdf="http://www.w3.org/1999/02/22-rdf-syntax-ns#"
   xmlns:svg="http://www.w3.org/2000/svg"
   xmlns="http://www.w3.org/2000/svg"
   xmlns:sodipodi="http://sodipodi.sourceforge.net/DTD/sodipodi-0.dtd"
   xmlns:inkscape="http://www.inkscape.org/namespaces/inkscape"
   id="Layer_1"
   data-name="Layer 1"
   viewBox="0 0 1000 1000"
   version="1.1"
   sodipodi:docname="TheGlobalGoals_Icons_Color_Goal_2.svg"
   inkscape:version="0.92.3 (2405546, 2018-03-11)">
  <metadata
     id="metadata3976">
    <rdf:RDF>
      <cc:Work
         rdf:about="">
        <dc:format>image/svg+xml</dc:format>
        <dc:type
           rdf:resource="http://purl.org/dc/dcmitype/StillImage" />
      </cc:Work>
    </rdf:RDF>
  </metadata>
  <sodipodi:namedview
     pagecolor="#ffffff"
     bordercolor="#666666"
     borderopacity="1"
     objecttolerance="10"
     gridtolerance="10"
     guidetolerance="10"
     inkscape:pageopacity="0"
     inkscape:pageshadow="2"
     inkscape:window-width="2482"
     inkscape:window-height="1411"
     id="namedview3974"
     showgrid="false"
     showguides="true"
     inkscape:guide-bbox="true"
     inkscape:zoom="1.1779529"
     inkscape:cx="356.95523"
     inkscape:cy="500.00001"
     inkscape:window-x="1911"
     inkscape:window-y="-9"
     inkscape:window-maximized="1"
     inkscape:current-layer="Layer_1">
    <sodipodi:guide
       position="284.71,845.69"
       orientation="1,0"
       id="guide4024"
       inkscape:locked="false" />
    <sodipodi:guide
       position="-318.34889,865.90898"
       orientation="0,1"
       id="guide4026"
       inkscape:locked="false" />
  </sodipodi:namedview>
  <defs
     id="defs3949">
    <style
       id="style3947">
      .cls-1 {
        fill: #dda63a;
      }

      .cls-2 {
        fill: #fff;
      }
    </style>
  </defs>
  <title
     id="title3951">Artboard 1</title>
  <rect
     id="_Path_"
     data-name="&lt;Path&gt;"
     class="cls-1"
     y="-0.02"
     width="1000"
     height="1000.04" />
  <path
     id="_Path_2"
     data-name="&lt;Path&gt;"
     class="cls-2"
     d="M187,257.76H131.41v-9.52c0-15.75,5.65-21.7,14.27-30.92l21.7-22.9c17.55-18.73,21.42-30.63,21.42-50.86V123.94c0-28.84-14-42.53-44.31-42.53-29.73,0-44.91,15.76-44.91,44V149.8h30.94V124.52c0-12.18,5.94-15.76,13.09-15.76,6.53,0,12.18,2.69,12.18,15.18v16.65c0,16.66-1.49,23.2-12.49,34.79l-19,20.22C105.84,215.24,99,228.33,99,248.24v37.18h88Z" />
  <g
     id="g3959">
    <path
       id="_Path_3"
       data-name="&lt;Path&gt;"
       class="cls-2"
       d="M413.12,849.72v14.07a1.54,1.54,0,0,0-.05.31,1.63,1.63,0,0,0,.05.33,6.6,6.6,0,0,0,6.48,6.32s.08,0,.13,0l.16,0h165s.09,0,.14,0l.15,0a6.63,6.63,0,0,0,6.5-6.6s0,0,0,0a.07.07,0,0,1,0-.05V848.14c92.86-30.44,162.43-105.7,177.73-197.42,0-.2.06-.38.09-.55a5.85,5.85,0,0,0,.09-.92,6.66,6.66,0,0,0-6.67-6.67H237.14a6.67,6.67,0,0,0-6.69,6.67l.35,3c16.07,92.59,87.54,168.27,182.32,197.47" />
    <path
       id="_Path_4"
       data-name="&lt;Path&gt;"
       class="cls-2"
       d="M591.49,418.2c-2.17,3.08-53,76.21,1.13,135.34,24.81,27.14,22.66,51.08,15.58,67.25h34.7c7-23.87,4.12-53.82-24-84.6-39.86-43.58.51-102.47,1.12-103.38,4.76-6.72,2.21-15.38-5.63-19.42s-18.07-1.87-22.85,4.81" />
    <path
       id="_Path_5"
       data-name="&lt;Path&gt;"
       class="cls-2"
       d="M503.61,620.79h34.71c7-23.88,4.11-53.82-24.06-84.6-39.88-43.58.46-102.45,1.1-103.41,4.73-6.69,2.23-15.34-5.64-19.39s-18.06-1.88-22.82,4.81c-2.18,3.07-53,76.21,1.13,135.34,24.81,27.14,22.64,51.09,15.58,67.25" />
    <path
       id="_Path_6"
       data-name="&lt;Path&gt;"
       class="cls-2"
       d="M382.29,418.2c-2.2,3.08-53,76.21,1.12,135.34,24.82,27.15,22.67,51.09,15.6,67.25h34.7c7-23.86,4.12-53.81-24.08-84.6-39.87-43.58.5-102.47,1.14-103.4,4.71-6.7,2.2-15.36-5.67-19.4s-18.05-1.88-22.81,4.81" />
  </g>
  <text
     xml:space="preserve"
     style="font-style:normal;font-weight:normal;font-size:40px;line-height:1.25;font-family:sans-serif;letter-spacing:0px;word-spacing:0px;fill:#000000;fill-opacity:1;stroke:none"
     x="284.33334"
     y="207.79167"
     id="text3853"><tspan
       sodipodi:role="line"
       id="tspan3851"
       x="284.33334"
       y="207.79167"
       style="font-style:normal;font-variant:normal;font-weight:normal;font-stretch:normal;font-size:85.33333588px;font-family:'Microsoft Sans Serif';-inkscape-font-specification:'Microsoft Sans Serif';fill:#ffffff">零饥饿</tspan></text>
</svg>
